<svg xmlns="http://www.w3.org/2000/svg" xmlns:xlink="http://www.w3.org/1999/xlink" width="300" zoomAndPan="magnify" viewBox="0 0 224.87999 225" height="300" preserveAspectRatio="xMidYMid meet" version="1.0"><defs><clipPath id="6d3e8ddef3"><path d="M 22.488281 22.546875 L 202.390625 22.546875 L 202.390625 202.453125 L 22.488281 202.453125 Z M 22.488281 22.546875 " clip-rule="nonzero"/></clipPath><clipPath id="36b4116fc8"><path d="M 45.726562 22.546875 L 179.15625 22.546875 C 185.316406 22.546875 191.226562 24.996094 195.585938 29.355469 C 199.945312 33.710938 202.390625 39.621094 202.390625 45.785156 L 202.390625 179.214844 C 202.390625 185.378906 199.945312 191.289062 195.585938 195.644531 C 191.226562 200.003906 185.316406 202.453125 179.15625 202.453125 L 45.726562 202.453125 C 39.5625 202.453125 33.652344 200.003906 29.292969 195.644531 C 24.9375 191.289062 22.488281 185.378906 22.488281 179.214844 L 22.488281 45.785156 C 22.488281 39.621094 24.9375 33.710938 29.292969 29.355469 C 33.652344 24.996094 39.5625 22.546875 45.726562 22.546875 Z M 45.726562 22.546875 " clip-rule="nonzero"/></clipPath><clipPath id="c00388fd01"><path d="M 0.488281 0.546875 L 180.390625 0.546875 L 180.390625 180.453125 L 0.488281 180.453125 Z M 0.488281 0.546875 " clip-rule="nonzero"/></clipPath><clipPath id="7621f1a269"><path d="M 23.726562 0.546875 L 157.15625 0.546875 C 163.316406 0.546875 169.226562 2.996094 173.585938 7.355469 C 177.945312 11.710938 180.390625 17.621094 180.390625 23.785156 L 180.390625 157.214844 C 180.390625 163.378906 177.945312 169.289062 173.585938 173.644531 C 169.226562 178.003906 163.316406 180.453125 157.15625 180.453125 L 23.726562 180.453125 C 17.5625 180.453125 11.652344 178.003906 7.292969 173.644531 C 2.9375 169.289062 0.488281 163.378906 0.488281 157.214844 L 0.488281 23.785156 C 0.488281 17.621094 2.9375 11.710938 7.292969 7.355469 C 11.652344 2.996094 17.5625 0.546875 23.726562 0.546875 Z M 23.726562 0.546875 " clip-rule="nonzero"/></clipPath><clipPath id="708706f920"><rect x="0" width="181" y="0" height="181"/></clipPath><clipPath id="613a1ed071"><path d="M 66 66 L 158 66 L 158 158 L 66 158 Z M 66 66 " clip-rule="nonzero"/></clipPath><clipPath id="0473c736e0"><path d="M -29.378906 14.15625 L -29.378906 210.84375 C -29.378906 234.855469 -9.914062 254.320312 14.097656 254.320312 L 210.78125 254.320312 C 234.792969 254.320312 254.257812 234.855469 254.257812 210.84375 L 254.257812 14.15625 C 254.257812 -9.855469 234.792969 -29.320312 210.78125 -29.320312 L 14.097656 -29.320312 C -9.914062 -29.320312 -29.378906 -9.855469 -29.378906 14.15625 Z M -29.378906 14.15625 " clip-rule="nonzero"/></clipPath></defs><g clip-path="url(#6d3e8ddef3)"><g clip-path="url(#36b4116fc8)"><g transform="matrix(1, 0, 0, 1, 22, 22)"><g clip-path="url(#708706f920)"><g clip-path="url(#c00388fd01)"><g clip-path="url(#7621f1a269)"><path fill="#ccff00" d="M 0.488281 0.546875 L 180.390625 0.546875 L 180.390625 180.453125 L 0.488281 180.453125 Z M 0.488281 0.546875 " fill-opacity="1" fill-rule="nonzero"/></g></g></g></g></g></g><g clip-path="url(#613a1ed071)"><g clip-path="url(#0473c736e0)"><path fill="#000000" d="M 140.777344 112.328125 C 140.777344 113.375 140.71875 114.421875 140.601562 115.46875 C 140.484375 116.511719 140.3125 117.542969 140.082031 118.570312 C 139.851562 119.59375 139.566406 120.601562 139.222656 121.59375 C 138.882812 122.589844 138.484375 123.558594 138.035156 124.507812 C 137.585938 125.457031 137.085938 126.378906 136.535156 127.273438 C 135.984375 128.167969 135.386719 129.027344 134.742188 129.855469 C 134.09375 130.683594 133.40625 131.472656 132.671875 132.222656 C 131.9375 132.976562 131.164062 133.683594 130.351562 134.351562 C 129.542969 135.015625 128.695312 135.636719 127.816406 136.210938 C 126.933594 136.78125 126.027344 137.304688 125.089844 137.777344 C 124.148438 138.25 123.1875 138.667969 122.203125 139.035156 C 121.222656 139.402344 120.21875 139.710938 119.199219 139.964844 C 118.183594 140.222656 117.152344 140.421875 116.113281 140.5625 C 115.070312 140.703125 114.027344 140.789062 112.976562 140.8125 C 111.925781 140.839844 110.878906 140.808594 109.832031 140.71875 C 108.785156 140.628906 107.75 140.480469 106.71875 140.277344 C 105.6875 140.074219 104.671875 139.8125 103.671875 139.496094 C 102.667969 139.179688 101.6875 138.808594 100.730469 138.382812 C 99.769531 137.960938 98.835938 137.484375 97.925781 136.953125 C 97.019531 136.425781 96.144531 135.851562 95.300781 135.226562 C 94.457031 134.601562 93.648438 133.929688 92.878906 133.214844 C 92.109375 132.503906 91.378906 131.746094 90.695312 130.953125 C 90.007812 130.160156 89.367188 129.328125 88.773438 128.464844 C 88.175781 127.597656 87.632812 126.703125 87.136719 125.777344 C 86.640625 124.851562 86.195312 123.902344 85.804688 122.925781 C 85.414062 121.953125 85.078125 120.957031 84.796875 119.945312 C 84.515625 118.933594 84.292969 117.910156 84.125 116.875 C 83.953125 115.839844 83.84375 114.796875 83.792969 113.746094 C 83.738281 112.699219 83.742188 111.648438 83.808594 110.601562 C 83.871094 109.554688 83.992188 108.511719 84.167969 107.476562 C 84.347656 106.441406 84.582031 105.417969 84.871094 104.410156 C 85.164062 103.402344 85.507812 102.410156 85.910156 101.441406 L 75.664062 101.441406 C 75.445312 102.167969 75.25 102.90625 75.078125 103.644531 C 74.90625 104.386719 74.753906 105.128906 74.625 105.878906 C 74.496094 106.628906 74.390625 107.382812 74.304688 108.136719 C 74.21875 108.894531 74.160156 109.652344 74.121094 110.410156 C 74.082031 111.171875 74.066406 111.929688 74.070312 112.691406 C 74.078125 113.449219 74.105469 114.210938 74.160156 114.96875 C 74.210938 115.726562 74.285156 116.484375 74.382812 117.238281 C 74.480469 117.992188 74.597656 118.742188 74.742188 119.492188 C 74.882812 120.238281 75.046875 120.980469 75.234375 121.71875 C 75.417969 122.453125 75.625 123.1875 75.855469 123.910156 C 76.085938 124.636719 76.335938 125.351562 76.609375 126.0625 C 76.882812 126.773438 77.175781 127.472656 77.492188 128.167969 C 77.804688 128.859375 78.140625 129.542969 78.496094 130.214844 C 78.851562 130.886719 79.226562 131.546875 79.621094 132.199219 C 80.015625 132.847656 80.429688 133.484375 80.863281 134.109375 C 81.292969 134.734375 81.746094 135.347656 82.214844 135.945312 C 82.683594 136.542969 83.171875 137.128906 83.675781 137.699219 C 84.179688 138.265625 84.699219 138.820312 85.238281 139.359375 C 85.773438 139.898438 86.328125 140.417969 86.894531 140.925781 C 87.464844 141.429688 88.046875 141.917969 88.644531 142.386719 C 89.242188 142.859375 89.851562 143.3125 90.476562 143.746094 C 91.101562 144.179688 91.738281 144.59375 92.386719 144.988281 C 93.035156 145.386719 93.695312 145.761719 94.367188 146.117188 C 95.039062 146.476562 95.722656 146.8125 96.414062 147.128906 C 97.105469 147.441406 97.804688 147.738281 98.515625 148.011719 C 99.226562 148.285156 99.941406 148.539062 100.667969 148.769531 C 101.390625 149 102.121094 149.210938 102.859375 149.398438 C 103.597656 149.585938 104.339844 149.75 105.085938 149.894531 C 105.832031 150.039062 106.582031 150.160156 107.335938 150.257812 C 108.089844 150.355469 108.847656 150.429688 109.605469 150.484375 C 110.363281 150.539062 111.125 150.570312 111.882812 150.578125 C 112.644531 150.585938 113.402344 150.570312 114.164062 150.53125 C 114.921875 150.496094 115.679688 150.433594 116.4375 150.351562 C 117.191406 150.269531 117.945312 150.164062 118.695312 150.039062 C 119.445312 149.910156 120.191406 149.761719 120.929688 149.589844 C 121.671875 149.417969 122.40625 149.222656 123.136719 149.007812 C 123.867188 148.789062 124.585938 148.550781 125.300781 148.292969 C 126.015625 148.035156 126.722656 147.753906 127.421875 147.453125 C 128.121094 147.152344 128.808594 146.832031 129.488281 146.488281 C 130.167969 146.144531 130.835938 145.785156 131.492188 145.402344 C 132.152344 145.019531 132.796875 144.617188 133.429688 144.195312 C 134.0625 143.777344 134.683594 143.335938 135.289062 142.878906 C 135.898438 142.421875 136.492188 141.945312 137.070312 141.453125 C 137.648438 140.960938 138.210938 140.449219 138.761719 139.921875 C 139.308594 139.394531 139.839844 138.851562 140.359375 138.292969 C 140.875 137.734375 141.371094 137.160156 141.855469 136.574219 C 142.335938 135.984375 142.800781 135.382812 143.246094 134.765625 C 143.691406 134.152344 144.117188 133.523438 144.527344 132.878906 C 144.933594 132.238281 145.324219 131.585938 145.691406 130.921875 C 146.0625 130.253906 146.410156 129.582031 146.742188 128.894531 C 147.070312 128.210938 147.378906 127.515625 147.664062 126.808594 C 147.953125 126.105469 148.21875 125.394531 148.464844 124.675781 C 148.707031 123.953125 148.933594 123.226562 149.132812 122.496094 C 149.335938 121.761719 149.515625 121.023438 149.671875 120.277344 C 149.828125 119.535156 149.964844 118.785156 150.078125 118.035156 C 150.191406 117.28125 150.28125 116.527344 150.347656 115.769531 C 150.417969 115.011719 150.460938 114.253906 150.484375 113.492188 C 150.507812 112.734375 150.507812 111.972656 150.484375 111.214844 C 150.460938 110.453125 150.414062 109.695312 150.347656 108.9375 C 150.277344 108.179688 150.1875 107.425781 150.074219 106.671875 C 149.960938 105.921875 149.824219 105.171875 149.667969 104.429688 C 149.511719 103.683594 149.332031 102.945312 149.128906 102.214844 C 148.925781 101.480469 148.703125 100.753906 148.457031 100.035156 C 148.210938 99.3125 147.945312 98.601562 147.65625 97.898438 C 147.371094 97.195312 147.0625 96.5 146.730469 95.8125 C 146.402344 95.128906 146.054688 94.453125 145.683594 93.789062 C 145.3125 93.125 144.925781 92.472656 144.515625 91.832031 C 144.109375 91.1875 143.679688 90.558594 143.234375 89.945312 C 142.789062 89.328125 142.324219 88.726562 141.839844 88.136719 C 141.359375 87.550781 140.859375 86.976562 140.34375 86.417969 C 139.828125 85.859375 139.296875 85.316406 138.746094 84.792969 C 138.199219 84.265625 137.632812 83.753906 137.054688 83.261719 C 136.476562 82.769531 135.882812 82.292969 135.273438 81.835938 C 134.667969 81.378906 134.046875 80.941406 133.414062 80.519531 C 132.78125 80.097656 132.132812 79.699219 131.476562 79.316406 C 130.820312 78.933594 130.148438 78.574219 129.472656 78.230469 C 128.792969 77.886719 128.101562 77.566406 127.40625 77.265625 C 126.707031 76.964844 126 76.683594 125.285156 76.425781 C 124.570312 76.167969 123.847656 75.929688 123.117188 75.714844 C 122.386719 75.5 121.652344 75.304688 120.910156 75.132812 C 120.171875 74.964844 119.425781 74.8125 118.675781 74.6875 C 117.925781 74.558594 117.171875 74.453125 116.417969 74.371094 C 115.660156 74.289062 114.902344 74.230469 114.144531 74.195312 C 113.382812 74.15625 112.625 74.140625 111.863281 74.152344 C 111.105469 74.160156 110.34375 74.191406 109.585938 74.242188 C 108.828125 74.296875 108.070312 74.375 107.316406 74.472656 C 106.5625 74.570312 105.8125 74.691406 105.066406 74.835938 C 104.320312 74.980469 103.578125 75.144531 102.839844 75.335938 C 102.101562 75.523438 101.371094 75.730469 100.648438 75.964844 C 99.921875 76.195312 99.207031 76.449219 98.496094 76.722656 C 97.789062 76.996094 97.085938 77.292969 96.394531 77.609375 C 95.703125 77.925781 95.023438 78.261719 94.351562 78.617188 C 93.679688 78.976562 93.019531 79.351562 92.371094 79.746094 C 91.722656 80.144531 91.085938 80.558594 90.460938 80.992188 C 89.835938 81.429688 89.226562 81.878906 88.628906 82.351562 C 88.03125 82.820312 87.449219 83.308594 86.878906 83.816406 L 112.265625 83.816406 C 113.199219 83.816406 114.132812 83.863281 115.0625 83.953125 C 115.988281 84.042969 116.914062 84.183594 117.828125 84.363281 C 118.742188 84.546875 119.648438 84.773438 120.542969 85.042969 C 121.4375 85.316406 122.3125 85.628906 123.175781 85.988281 C 124.039062 86.34375 124.882812 86.742188 125.707031 87.183594 C 126.527344 87.625 127.328125 88.101562 128.105469 88.621094 C 128.882812 89.140625 129.628906 89.695312 130.351562 90.289062 C 131.074219 90.878906 131.765625 91.507812 132.425781 92.167969 C 133.085938 92.828125 133.710938 93.519531 134.304688 94.238281 C 134.898438 94.960938 135.453125 95.710938 135.972656 96.488281 C 136.488281 97.261719 136.96875 98.0625 137.410156 98.886719 C 137.851562 99.710938 138.25 100.554688 138.605469 101.417969 C 138.964844 102.277344 139.277344 103.15625 139.546875 104.050781 C 139.820312 104.945312 140.046875 105.847656 140.230469 106.765625 C 140.410156 107.679688 140.546875 108.601562 140.640625 109.53125 C 140.730469 110.460938 140.777344 111.390625 140.777344 112.328125 Z M 73.746094 93.835938 L 102.5 93.835938 C 101.753906 94.230469 101.035156 94.667969 100.339844 95.148438 C 99.648438 95.628906 98.988281 96.148438 98.359375 96.710938 C 97.730469 97.269531 97.136719 97.867188 96.578125 98.5 C 96.019531 99.132812 95.503906 99.792969 95.023438 100.488281 C 94.546875 101.183594 94.113281 101.90625 93.722656 102.652344 C 93.332031 103.398438 92.988281 104.167969 92.691406 104.957031 C 92.394531 105.746094 92.148438 106.550781 91.945312 107.367188 C 91.746094 108.1875 91.597656 109.015625 91.496094 109.851562 C 91.398438 110.6875 91.347656 111.527344 91.347656 112.371094 C 91.351562 113.214844 91.402344 114.054688 91.507812 114.890625 C 91.609375 115.726562 91.761719 116.554688 91.964844 117.375 C 92.167969 118.191406 92.421875 118.992188 92.722656 119.78125 C 93.023438 120.570312 93.367188 121.335938 93.761719 122.082031 C 94.152344 122.828125 94.589844 123.546875 95.070312 124.238281 C 95.550781 124.933594 96.070312 125.59375 96.628906 126.222656 C 97.191406 126.855469 97.785156 127.449219 98.417969 128.007812 C 99.050781 128.5625 99.714844 129.082031 100.40625 129.558594 C 101.101562 130.039062 101.824219 130.472656 102.570312 130.863281 C 103.316406 131.253906 104.085938 131.597656 104.875 131.894531 C 105.660156 132.191406 106.464844 132.441406 107.285156 132.644531 C 108.101562 132.84375 108.929688 132.996094 109.765625 133.09375 C 110.605469 133.195312 111.445312 133.246094 112.289062 133.246094 C 113.128906 133.242188 113.96875 133.191406 114.808594 133.089844 C 115.644531 132.984375 116.472656 132.832031 117.289062 132.632812 C 118.105469 132.429688 118.910156 132.175781 119.699219 131.878906 C 120.484375 131.578125 121.253906 131.230469 122 130.839844 C 122.746094 130.445312 123.464844 130.011719 124.15625 129.53125 C 124.851562 129.050781 125.511719 128.53125 126.144531 127.972656 C 126.773438 127.414062 127.367188 126.816406 127.925781 126.1875 C 128.484375 125.554688 129.003906 124.890625 129.480469 124.199219 C 129.960938 123.503906 130.394531 122.785156 130.785156 122.035156 C 131.175781 121.289062 131.523438 120.523438 131.820312 119.734375 C 132.117188 118.945312 132.367188 118.140625 132.570312 117.324219 C 132.769531 116.503906 132.921875 115.675781 133.023438 114.839844 C 133.125 114.003906 133.175781 113.164062 133.175781 112.320312 C 133.175781 111.476562 133.121094 110.636719 133.019531 109.800781 C 132.917969 108.964844 132.765625 108.136719 132.566406 107.320312 C 132.363281 106.5 132.113281 105.695312 131.8125 104.910156 C 131.515625 104.121094 131.167969 103.355469 130.777344 102.609375 C 130.382812 101.863281 129.949219 101.140625 129.46875 100.449219 C 128.992188 99.753906 128.472656 99.09375 127.914062 98.460938 C 127.355469 97.832031 126.757812 97.234375 126.128906 96.675781 C 125.496094 96.117188 124.835938 95.597656 124.140625 95.121094 C 123.445312 94.640625 122.726562 94.207031 121.980469 93.8125 C 121.234375 93.421875 120.464844 93.078125 119.679688 92.777344 C 118.890625 92.480469 118.085938 92.230469 117.269531 92.027344 C 116.449219 91.824219 115.621094 91.671875 114.785156 91.570312 C 113.949219 91.46875 113.109375 91.417969 112.265625 91.417969 L 71.53125 91.417969 C 71.980469 90.539062 72.460938 89.679688 72.964844 88.832031 C 73.472656 87.984375 74.007812 87.15625 74.566406 86.34375 C 75.128906 85.53125 75.714844 84.738281 76.328125 83.964844 C 76.941406 83.191406 77.578125 82.4375 78.238281 81.703125 C 78.898438 80.96875 79.582031 80.257812 80.289062 79.570312 C 80.996094 78.882812 81.726562 78.21875 82.476562 77.578125 C 83.226562 76.9375 83.996094 76.320312 84.789062 75.726562 C 85.578125 75.136719 86.386719 74.570312 87.214844 74.03125 C 88.039062 73.496094 88.882812 72.984375 89.742188 72.5 C 90.605469 72.015625 91.480469 71.558594 92.367188 71.132812 C 93.257812 70.703125 94.160156 70.304688 95.078125 69.9375 C 95.992188 69.570312 96.917969 69.230469 97.855469 68.921875 C 98.792969 68.613281 99.738281 68.335938 100.695312 68.085938 C 101.652344 67.839844 102.613281 67.625 103.582031 67.4375 C 104.550781 67.253906 105.527344 67.101562 106.507812 66.980469 C 107.484375 66.855469 108.46875 66.765625 109.453125 66.710938 C 110.4375 66.652344 111.425781 66.625 112.410156 66.632812 C 113.398438 66.636719 114.382812 66.675781 115.367188 66.746094 C 116.351562 66.816406 117.335938 66.917969 118.3125 67.050781 C 119.289062 67.183594 120.261719 67.347656 121.230469 67.546875 C 122.195312 67.742188 123.15625 67.96875 124.109375 68.230469 C 125.0625 68.488281 126.003906 68.777344 126.9375 69.097656 C 127.871094 69.417969 128.792969 69.769531 129.707031 70.148438 C 130.617188 70.527344 131.515625 70.9375 132.398438 71.375 C 133.28125 71.8125 134.152344 72.277344 135.007812 72.773438 C 135.859375 73.269531 136.699219 73.789062 137.519531 74.339844 C 138.339844 74.886719 139.140625 75.460938 139.921875 76.0625 C 140.707031 76.664062 141.46875 77.289062 142.210938 77.941406 C 142.953125 78.589844 143.675781 79.261719 144.375 79.960938 C 145.070312 80.65625 145.746094 81.375 146.398438 82.117188 C 147.050781 82.859375 147.679688 83.621094 148.28125 84.402344 C 148.886719 85.183594 149.460938 85.984375 150.011719 86.800781 C 150.5625 87.621094 151.085938 88.457031 151.582031 89.308594 C 152.082031 90.164062 152.550781 91.03125 152.988281 91.914062 C 153.429688 92.796875 153.839844 93.695312 154.222656 94.605469 C 154.605469 95.511719 154.957031 96.433594 155.28125 97.367188 C 155.601562 98.300781 155.894531 99.242188 156.15625 100.195312 C 156.417969 101.144531 156.648438 102.105469 156.847656 103.074219 C 157.046875 104.039062 157.214844 105.011719 157.347656 105.988281 C 157.484375 106.964844 157.589844 107.945312 157.660156 108.929688 C 157.734375 109.914062 157.773438 110.902344 157.785156 111.886719 C 157.792969 112.875 157.769531 113.863281 157.710938 114.847656 C 157.65625 115.832031 157.570312 116.816406 157.449219 117.792969 C 157.332031 118.773438 157.179688 119.75 157 120.71875 C 156.816406 121.6875 156.601562 122.652344 156.355469 123.609375 C 156.113281 124.566406 155.835938 125.511719 155.53125 126.449219 C 155.222656 127.386719 154.886719 128.316406 154.519531 129.230469 C 154.15625 130.148438 153.757812 131.050781 153.332031 131.941406 C 152.910156 132.832031 152.457031 133.710938 151.972656 134.570312 C 151.492188 135.433594 150.980469 136.277344 150.445312 137.105469 C 149.910156 137.933594 149.347656 138.742188 148.757812 139.535156 C 148.167969 140.328125 147.554688 141.097656 146.914062 141.851562 C 146.273438 142.601562 145.613281 143.332031 144.925781 144.042969 C 144.238281 144.75 143.527344 145.4375 142.796875 146.101562 C 142.066406 146.761719 141.316406 147.402344 140.542969 148.015625 C 139.769531 148.628906 138.976562 149.21875 138.167969 149.78125 C 137.355469 150.34375 136.527344 150.878906 135.683594 151.390625 C 134.835938 151.898438 133.976562 152.378906 133.097656 152.832031 C 132.222656 153.285156 131.332031 153.710938 130.429688 154.105469 C 129.523438 154.5 128.609375 154.867188 127.679688 155.203125 C 126.75 155.539062 125.8125 155.84375 124.867188 156.121094 C 123.917969 156.394531 122.960938 156.640625 122 156.851562 C 121.035156 157.066406 120.066406 157.25 119.089844 157.398438 C 118.113281 157.550781 117.136719 157.667969 116.152344 157.753906 C 115.167969 157.839844 114.183594 157.898438 113.195312 157.917969 C 112.210938 157.941406 111.222656 157.933594 110.238281 157.890625 C 109.25 157.851562 108.269531 157.777344 107.285156 157.671875 C 106.304688 157.570312 105.328125 157.433594 104.355469 157.265625 C 103.382812 157.097656 102.417969 156.898438 101.457031 156.664062 C 100.496094 156.433594 99.546875 156.171875 98.605469 155.878906 C 97.660156 155.589844 96.730469 155.265625 95.808594 154.914062 C 94.886719 154.558594 93.976562 154.175781 93.078125 153.765625 C 92.183594 153.351562 91.300781 152.914062 90.433594 152.441406 C 89.5625 151.972656 88.710938 151.476562 87.875 150.953125 C 87.039062 150.429688 86.222656 149.878906 85.421875 149.300781 C 84.621094 148.722656 83.839844 148.121094 83.078125 147.492188 C 82.316406 146.863281 81.578125 146.210938 80.859375 145.535156 C 80.140625 144.859375 79.441406 144.160156 78.769531 143.4375 C 78.09375 142.714844 77.445312 141.972656 76.820312 141.210938 C 76.195312 140.449219 75.59375 139.664062 75.019531 138.863281 C 74.445312 138.058594 73.898438 137.238281 73.375 136.402344 C 72.855469 135.5625 72.359375 134.710938 71.894531 133.839844 C 71.429688 132.96875 70.992188 132.085938 70.582031 131.1875 C 70.171875 130.289062 69.792969 129.378906 69.445312 128.453125 C 69.09375 127.53125 68.777344 126.597656 68.488281 125.65625 C 68.199219 124.710938 67.9375 123.757812 67.710938 122.796875 C 67.484375 121.839844 67.289062 120.871094 67.125 119.898438 C 66.957031 118.925781 66.824219 117.949219 66.726562 116.964844 C 66.625 115.984375 66.554688 115 66.515625 114.015625 C 66.480469 113.027344 66.472656 112.042969 66.5 111.054688 C 66.527344 110.066406 66.585938 109.082031 66.675781 108.101562 C 66.765625 107.117188 66.886719 106.140625 67.042969 105.164062 C 67.195312 104.1875 67.382812 103.21875 67.597656 102.257812 C 67.816406 101.292969 68.0625 100.339844 68.339844 99.394531 C 68.621094 98.445312 68.929688 97.507812 69.269531 96.582031 C 69.609375 95.65625 69.976562 94.742188 70.375 93.835938 Z M 73.746094 93.835938 " fill-opacity="1" fill-rule="evenodd"/></g></g></svg>