<svg xmlns="http://www.w3.org/2000/svg" xmlns:xlink="http://www.w3.org/1999/xlink" width="512" zoomAndPan="magnify" viewBox="0 0 384 383.999986" height="512" preserveAspectRatio="xMidYMid meet" version="1.0"><defs><clipPath id="43082f46a4"><path d="M 38.398438 38.398438 L 345.601562 38.398438 L 345.601562 345.601562 L 38.398438 345.601562 Z M 38.398438 38.398438 " clip-rule="nonzero"/></clipPath><clipPath id="daf56d9104"><path d="M 76.648438 38.398438 L 307.351562 38.398438 C 317.496094 38.398438 327.222656 42.429688 334.398438 49.601562 C 341.570312 56.777344 345.601562 66.503906 345.601562 76.648438 L 345.601562 307.351562 C 345.601562 328.476562 328.476562 345.601562 307.351562 345.601562 L 76.648438 345.601562 C 66.503906 345.601562 56.777344 341.570312 49.601562 334.398438 C 42.429688 327.222656 38.398438 317.496094 38.398438 307.351562 L 38.398438 76.648438 C 38.398438 55.523438 55.523438 38.398438 76.648438 38.398438 Z M 76.648438 38.398438 " clip-rule="nonzero"/></clipPath><clipPath id="3005b99406"><path d="M 0.398438 0.398438 L 307.601562 0.398438 L 307.601562 307.601562 L 0.398438 307.601562 Z M 0.398438 0.398438 " clip-rule="nonzero"/></clipPath><clipPath id="7872476fa5"><path d="M 38.648438 0.398438 L 269.351562 0.398438 C 279.496094 0.398438 289.222656 4.429688 296.398438 11.601562 C 303.570312 18.777344 307.601562 28.503906 307.601562 38.648438 L 307.601562 269.351562 C 307.601562 290.476562 290.476562 307.601562 269.351562 307.601562 L 38.648438 307.601562 C 28.503906 307.601562 18.777344 303.570312 11.601562 296.398438 C 4.429688 289.222656 0.398438 279.496094 0.398438 269.351562 L 0.398438 38.648438 C 0.398438 17.523438 17.523438 0.398438 38.648438 0.398438 Z M 38.648438 0.398438 " clip-rule="nonzero"/></clipPath><clipPath id="40d21f2ca5"><rect x="0" width="308" y="0" height="308"/></clipPath></defs><g clip-path="url(#43082f46a4)"><g clip-path="url(#daf56d9104)"><g transform="matrix(1, 0, 0, 1, 38, 38)"><g clip-path="url(#40d21f2ca5)"><g clip-path="url(#3005b99406)"><g clip-path="url(#7872476fa5)"><path fill="#ccff00" d="M 0.398438 0.398438 L 307.601562 0.398438 L 307.601562 307.601562 L 0.398438 307.601562 Z M 0.398438 0.398438 " fill-opacity="1" fill-rule="nonzero"/></g></g></g></g></g></g><path fill="#000000" d="M 227.964844 191.816406 C 227.964844 193.148438 227.890625 194.476562 227.742188 195.800781 C 227.597656 197.121094 227.375 198.433594 227.085938 199.734375 C 226.792969 201.03125 226.429688 202.308594 225.996094 203.570312 C 225.5625 204.828125 225.058594 206.058594 224.492188 207.261719 C 223.921875 208.464844 223.289062 209.632812 222.589844 210.769531 C 221.890625 211.902344 221.132812 212.992188 220.3125 214.042969 C 219.492188 215.089844 218.617188 216.09375 217.6875 217.046875 C 216.757812 218 215.777344 218.898438 214.75 219.742188 C 213.71875 220.585938 212.648438 221.371094 211.53125 222.097656 C 210.414062 222.824219 209.261719 223.488281 208.074219 224.085938 C 206.886719 224.683594 205.667969 225.214844 204.417969 225.679688 C 203.171875 226.144531 201.902344 226.539062 200.609375 226.863281 C 199.316406 227.1875 198.011719 227.4375 196.695312 227.617188 C 195.375 227.796875 194.050781 227.902344 192.71875 227.9375 C 191.386719 227.96875 190.058594 227.929688 188.730469 227.816406 C 187.40625 227.703125 186.089844 227.515625 184.78125 227.257812 C 183.476562 226.996094 182.1875 226.667969 180.917969 226.265625 C 179.652344 225.863281 178.40625 225.394531 177.1875 224.855469 C 175.972656 224.316406 174.789062 223.710938 173.636719 223.042969 C 172.484375 222.375 171.375 221.640625 170.304688 220.851562 C 169.234375 220.058594 168.210938 219.207031 167.238281 218.304688 C 166.261719 217.398438 165.335938 216.441406 164.464844 215.433594 C 163.597656 214.425781 162.785156 213.375 162.03125 212.277344 C 161.273438 211.179688 160.582031 210.042969 159.953125 208.871094 C 159.324219 207.699219 158.765625 206.492188 158.269531 205.257812 C 157.773438 204.023438 157.347656 202.761719 156.988281 201.480469 C 156.632812 200.195312 156.347656 198.898438 156.136719 197.585938 C 155.921875 196.269531 155.78125 194.949219 155.714844 193.617188 C 155.648438 192.289062 155.65625 190.960938 155.734375 189.628906 C 155.816406 188.300781 155.96875 186.980469 156.191406 185.667969 C 156.417969 184.355469 156.714844 183.0625 157.085938 181.78125 C 157.453125 180.503906 157.894531 179.246094 158.402344 178.015625 L 145.410156 178.015625 C 145.136719 178.941406 144.886719 179.871094 144.667969 180.808594 C 144.449219 181.75 144.253906 182.695312 144.09375 183.644531 C 143.929688 184.59375 143.792969 185.546875 143.6875 186.507812 C 143.582031 187.464844 143.503906 188.425781 143.453125 189.386719 C 143.402344 190.351562 143.382812 191.316406 143.390625 192.277344 C 143.398438 193.242188 143.4375 194.207031 143.503906 195.167969 C 143.566406 196.128906 143.664062 197.089844 143.785156 198.046875 C 143.910156 199 144.058594 199.953125 144.238281 200.902344 C 144.417969 201.847656 144.628906 202.789062 144.863281 203.722656 C 145.097656 204.660156 145.363281 205.585938 145.65625 206.503906 C 145.945312 207.425781 146.265625 208.332031 146.609375 209.234375 C 146.957031 210.132812 147.328125 211.023438 147.726562 211.902344 C 148.125 212.777344 148.550781 213.644531 149 214.496094 C 149.449219 215.347656 149.925781 216.1875 150.425781 217.011719 C 150.925781 217.835938 151.453125 218.644531 152 219.4375 C 152.546875 220.230469 153.121094 221.003906 153.714844 221.765625 C 154.3125 222.523438 154.929688 223.261719 155.566406 223.984375 C 156.207031 224.707031 156.867188 225.410156 157.546875 226.09375 C 158.230469 226.773438 158.929688 227.4375 159.648438 228.078125 C 160.371094 228.71875 161.109375 229.335938 161.867188 229.933594 C 162.625 230.527344 163.398438 231.101562 164.191406 231.652344 C 164.984375 232.203125 165.789062 232.730469 166.613281 233.230469 C 167.4375 233.734375 168.273438 234.210938 169.125 234.660156 C 169.976562 235.113281 170.84375 235.539062 171.71875 235.941406 C 172.597656 236.339844 173.484375 236.714844 174.382812 237.0625 C 175.285156 237.410156 176.191406 237.730469 177.109375 238.023438 C 178.03125 238.316406 178.957031 238.582031 179.890625 238.820312 C 180.824219 239.058594 181.765625 239.265625 182.710938 239.449219 C 183.660156 239.628906 184.609375 239.785156 185.566406 239.910156 C 186.523438 240.035156 187.480469 240.128906 188.445312 240.199219 C 189.40625 240.265625 190.367188 240.304688 191.332031 240.3125 C 192.296875 240.324219 193.261719 240.304688 194.222656 240.257812 C 195.1875 240.210938 196.148438 240.136719 197.105469 240.03125 C 198.0625 239.925781 199.019531 239.792969 199.96875 239.628906 C 200.917969 239.46875 201.863281 239.277344 202.804688 239.0625 C 203.742188 238.84375 204.675781 238.597656 205.597656 238.324219 C 206.523438 238.050781 207.4375 237.746094 208.347656 237.417969 C 209.253906 237.089844 210.148438 236.734375 211.035156 236.355469 C 211.917969 235.972656 212.792969 235.5625 213.652344 235.128906 C 214.515625 234.695312 215.359375 234.238281 216.195312 233.753906 C 217.027344 233.265625 217.847656 232.757812 218.648438 232.226562 C 219.453125 231.691406 220.238281 231.132812 221.007812 230.554688 C 221.78125 229.972656 222.53125 229.371094 223.265625 228.746094 C 224 228.121094 224.714844 227.472656 225.410156 226.804688 C 226.105469 226.136719 226.777344 225.449219 227.433594 224.742188 C 228.085938 224.03125 228.71875 223.304688 229.332031 222.558594 C 229.941406 221.8125 230.53125 221.050781 231.09375 220.269531 C 231.660156 219.488281 232.203125 218.691406 232.71875 217.878906 C 233.238281 217.0625 233.730469 216.234375 234.199219 215.390625 C 234.667969 214.550781 235.109375 213.695312 235.527344 212.824219 C 235.941406 211.953125 236.335938 211.074219 236.699219 210.179688 C 237.0625 209.289062 237.402344 208.386719 237.710938 207.472656 C 238.023438 206.558594 238.304688 205.640625 238.558594 204.710938 C 238.816406 203.78125 239.042969 202.84375 239.242188 201.898438 C 239.441406 200.957031 239.613281 200.007812 239.757812 199.054688 C 239.902344 198.101562 240.015625 197.144531 240.101562 196.183594 C 240.1875 195.222656 240.246094 194.261719 240.273438 193.296875 C 240.300781 192.335938 240.300781 191.371094 240.273438 190.40625 C 240.242188 189.441406 240.183594 188.480469 240.097656 187.519531 C 240.011719 186.558594 239.898438 185.601562 239.753906 184.648438 C 239.609375 183.695312 239.4375 182.746094 239.238281 181.804688 C 239.039062 180.863281 238.808594 179.925781 238.554688 178.996094 C 238.296875 178.066406 238.015625 177.144531 237.703125 176.230469 C 237.390625 175.320312 237.054688 174.417969 236.6875 173.523438 C 236.324219 172.632812 235.933594 171.75 235.515625 170.882812 C 235.097656 170.011719 234.65625 169.15625 234.1875 168.316406 C 233.71875 167.472656 233.222656 166.644531 232.707031 165.832031 C 232.1875 165.019531 231.644531 164.222656 231.082031 163.441406 C 230.515625 162.660156 229.925781 161.894531 229.316406 161.148438 C 228.703125 160.40625 228.070312 159.679688 227.417969 158.96875 C 226.761719 158.261719 226.085938 157.574219 225.390625 156.90625 C 224.695312 156.238281 223.980469 155.59375 223.246094 154.96875 C 222.511719 154.34375 221.757812 153.738281 220.988281 153.160156 C 220.21875 152.582031 219.433594 152.023438 218.628906 151.492188 C 217.824219 150.957031 217.007812 150.449219 216.171875 149.964844 C 215.339844 149.480469 214.492188 149.023438 213.628906 148.589844 C 212.769531 148.15625 211.894531 147.746094 211.011719 147.367188 C 210.125 146.984375 209.230469 146.628906 208.320312 146.300781 C 207.414062 145.972656 206.5 145.671875 205.574219 145.398438 C 204.652344 145.125 203.71875 144.878906 202.777344 144.664062 C 201.839844 144.445312 200.894531 144.257812 199.945312 144.09375 C 198.992188 143.933594 198.039062 143.800781 197.082031 143.695312 C 196.121094 143.59375 195.160156 143.515625 194.199219 143.46875 C 193.234375 143.421875 192.273438 143.40625 191.308594 143.414062 C 190.34375 143.425781 189.378906 143.464844 188.417969 143.535156 C 187.457031 143.601562 186.496094 143.699219 185.542969 143.824219 C 184.585938 143.949219 183.632812 144.101562 182.6875 144.285156 C 181.742188 144.46875 180.800781 144.675781 179.867188 144.914062 C 178.929688 145.152344 178.003906 145.421875 177.085938 145.714844 C 176.167969 146.007812 175.257812 146.328125 174.359375 146.675781 C 173.460938 147.023438 172.574219 147.398438 171.695312 147.800781 C 170.820312 148.199219 169.957031 148.625 169.105469 149.078125 C 168.253906 149.53125 167.414062 150.007812 166.59375 150.511719 C 165.769531 151.015625 164.960938 151.539062 164.171875 152.089844 C 163.378906 152.640625 162.605469 153.214844 161.847656 153.8125 C 161.089844 154.410156 160.351562 155.027344 159.632812 155.667969 L 191.816406 155.667969 C 193 155.667969 194.183594 155.726562 195.359375 155.84375 C 196.539062 155.960938 197.707031 156.132812 198.871094 156.363281 C 200.03125 156.59375 201.175781 156.882812 202.308594 157.226562 C 203.441406 157.570312 204.554688 157.96875 205.648438 158.421875 C 206.742188 158.875 207.8125 159.378906 208.855469 159.9375 C 209.902344 160.496094 210.914062 161.105469 211.898438 161.761719 C 212.882812 162.421875 213.832031 163.125 214.75 163.875 C 215.664062 164.625 216.539062 165.421875 217.375 166.257812 C 218.214844 167.09375 219.007812 167.972656 219.757812 168.886719 C 220.511719 169.800781 221.214844 170.75 221.871094 171.734375 C 222.53125 172.71875 223.136719 173.734375 223.695312 174.777344 C 224.253906 175.820312 224.757812 176.890625 225.210938 177.984375 C 225.664062 179.078125 226.0625 180.191406 226.40625 181.324219 C 226.75 182.457031 227.039062 183.605469 227.269531 184.765625 C 227.5 185.925781 227.675781 187.097656 227.789062 188.273438 C 227.90625 189.453125 227.964844 190.632812 227.964844 191.816406 Z M 142.980469 168.375 L 179.433594 168.375 C 178.960938 168.625 178.496094 168.890625 178.039062 169.167969 C 177.585938 169.445312 177.136719 169.734375 176.699219 170.039062 C 176.257812 170.34375 175.832031 170.660156 175.410156 170.992188 C 174.992188 171.320312 174.582031 171.664062 174.183594 172.019531 C 173.785156 172.375 173.398438 172.738281 173.019531 173.117188 C 172.644531 173.496094 172.277344 173.886719 171.925781 174.285156 C 171.574219 174.6875 171.230469 175.097656 170.902344 175.519531 C 170.574219 175.9375 170.261719 176.371094 169.957031 176.808594 C 169.65625 177.25 169.367188 177.699219 169.089844 178.15625 C 168.816406 178.613281 168.554688 179.078125 168.308594 179.550781 C 168.0625 180.027344 167.828125 180.507812 167.609375 180.992188 C 167.390625 181.480469 167.1875 181.972656 167 182.472656 C 166.8125 182.972656 166.640625 183.476562 166.480469 183.988281 C 166.324219 184.5 166.179688 185.011719 166.054688 185.53125 C 165.929688 186.050781 165.816406 186.570312 165.722656 187.097656 C 165.625 187.621094 165.546875 188.148438 165.484375 188.679688 C 165.421875 189.210938 165.375 189.742188 165.34375 190.273438 C 165.3125 190.808594 165.296875 191.339844 165.296875 191.875 C 165.296875 192.410156 165.316406 192.941406 165.347656 193.476562 C 165.382812 194.007812 165.429688 194.539062 165.496094 195.070312 C 165.5625 195.597656 165.644531 196.125 165.742188 196.652344 C 165.835938 197.175781 165.949219 197.699219 166.078125 198.214844 C 166.207031 198.734375 166.351562 199.246094 166.511719 199.757812 C 166.671875 200.265625 166.847656 200.769531 167.035156 201.269531 C 167.226562 201.769531 167.433594 202.261719 167.652344 202.746094 C 167.871094 203.234375 168.105469 203.714844 168.355469 204.1875 C 168.605469 204.660156 168.867188 205.121094 169.144531 205.578125 C 169.421875 206.035156 169.710938 206.484375 170.015625 206.921875 C 170.320312 207.359375 170.636719 207.789062 170.964844 208.210938 C 171.296875 208.628906 171.640625 209.039062 171.992188 209.4375 C 172.347656 209.835938 172.714844 210.226562 173.09375 210.601562 C 173.472656 210.980469 173.859375 211.34375 174.261719 211.699219 C 174.660156 212.050781 175.070312 212.390625 175.492188 212.71875 C 175.914062 213.050781 176.34375 213.363281 176.78125 213.667969 C 177.222656 213.96875 177.671875 214.257812 178.128906 214.535156 C 178.585938 214.808594 179.050781 215.070312 179.523438 215.320312 C 179.996094 215.566406 180.476562 215.800781 180.964844 216.019531 C 181.449219 216.238281 181.945312 216.441406 182.445312 216.628906 C 182.941406 216.816406 183.449219 216.992188 183.957031 217.148438 C 184.46875 217.308594 184.980469 217.449219 185.5 217.578125 C 186.019531 217.703125 186.542969 217.816406 187.066406 217.910156 C 187.589844 218.007812 188.121094 218.085938 188.648438 218.148438 C 189.179688 218.214844 189.710938 218.261719 190.242188 218.292969 C 190.777344 218.324219 191.308594 218.339844 191.84375 218.339844 C 192.378906 218.339844 192.910156 218.320312 193.445312 218.289062 C 193.976562 218.253906 194.507812 218.207031 195.039062 218.140625 C 195.566406 218.078125 196.097656 217.996094 196.621094 217.898438 C 197.144531 217.800781 197.667969 217.691406 198.1875 217.5625 C 198.703125 217.433594 199.21875 217.289062 199.726562 217.128906 C 200.238281 216.96875 200.742188 216.796875 201.238281 216.605469 C 201.738281 216.414062 202.230469 216.210938 202.71875 215.992188 C 203.207031 215.773438 203.683594 215.539062 204.15625 215.289062 C 204.628906 215.039062 205.09375 214.777344 205.550781 214.5 C 206.007812 214.226562 206.457031 213.933594 206.894531 213.632812 C 207.332031 213.328125 207.761719 213.011719 208.183594 212.679688 C 208.601562 212.351562 209.011719 212.007812 209.410156 211.65625 C 209.8125 211.300781 210.199219 210.933594 210.578125 210.554688 C 210.953125 210.179688 211.320312 209.789062 211.671875 209.390625 C 212.027344 208.988281 212.367188 208.578125 212.695312 208.160156 C 213.027344 207.738281 213.34375 207.308594 213.644531 206.867188 C 213.949219 206.429688 214.238281 205.980469 214.511719 205.523438 C 214.789062 205.066406 215.050781 204.601562 215.296875 204.128906 C 215.546875 203.65625 215.78125 203.175781 216 202.6875 C 216.21875 202.203125 216.421875 201.710938 216.609375 201.210938 C 216.796875 200.710938 216.972656 200.207031 217.132812 199.695312 C 217.289062 199.1875 217.433594 198.671875 217.558594 198.152344 C 217.6875 197.636719 217.800781 197.113281 217.894531 196.589844 C 217.992188 196.0625 218.070312 195.535156 218.136719 195.003906 C 218.199219 194.476562 218.246094 193.945312 218.277344 193.410156 C 218.3125 192.878906 218.328125 192.34375 218.328125 191.8125 C 218.328125 191.277344 218.308594 190.742188 218.277344 190.210938 C 218.246094 189.675781 218.195312 189.144531 218.132812 188.617188 C 218.066406 188.085938 217.988281 187.558594 217.890625 187.035156 C 217.792969 186.507812 217.679688 185.988281 217.554688 185.46875 C 217.425781 184.949219 217.28125 184.4375 217.125 183.925781 C 216.964844 183.417969 216.789062 182.914062 216.601562 182.414062 C 216.410156 181.914062 216.207031 181.421875 215.988281 180.933594 C 215.769531 180.449219 215.535156 179.96875 215.285156 179.496094 C 215.039062 179.023438 214.773438 178.558594 214.5 178.101562 C 214.222656 177.644531 213.933594 177.195312 213.628906 176.757812 C 213.324219 176.316406 213.011719 175.886719 212.679688 175.46875 C 212.351562 175.046875 212.007812 174.636719 211.65625 174.238281 C 211.300781 173.839844 210.933594 173.449219 210.558594 173.074219 C 210.179688 172.695312 209.792969 172.328125 209.390625 171.976562 C 208.992188 171.621094 208.582031 171.28125 208.160156 170.949219 C 207.742188 170.621094 207.3125 170.304688 206.871094 170 C 206.433594 169.699219 205.984375 169.410156 205.527344 169.132812 C 205.070312 168.855469 204.605469 168.59375 204.132812 168.347656 C 203.660156 168.097656 203.179688 167.863281 202.695312 167.644531 C 202.207031 167.425781 201.714844 167.222656 201.214844 167.03125 C 200.714844 166.84375 200.210938 166.667969 199.703125 166.511719 C 199.191406 166.351562 198.679688 166.207031 198.160156 166.082031 C 197.640625 165.953125 197.121094 165.839844 196.59375 165.746094 C 196.070312 165.648438 195.542969 165.566406 195.011719 165.503906 C 194.480469 165.4375 193.949219 165.390625 193.417969 165.359375 C 192.882812 165.324219 192.351562 165.308594 191.816406 165.308594 L 140.167969 165.308594 C 140.742188 164.195312 141.347656 163.101562 141.992188 162.03125 C 142.632812 160.957031 143.308594 159.902344 144.019531 158.875 C 144.730469 157.84375 145.476562 156.839844 146.253906 155.855469 C 147.027344 154.875 147.835938 153.921875 148.671875 152.992188 C 149.511719 152.0625 150.378906 151.160156 151.277344 150.289062 C 152.171875 149.414062 153.097656 148.574219 154.046875 147.757812 C 155 146.945312 155.976562 146.164062 156.976562 145.414062 C 157.980469 144.664062 159.003906 143.949219 160.054688 143.265625 C 161.101562 142.582031 162.171875 141.933594 163.261719 141.320312 C 164.351562 140.707031 165.460938 140.128906 166.589844 139.585938 C 167.71875 139.046875 168.863281 138.542969 170.023438 138.074219 C 171.183594 137.605469 172.359375 137.175781 173.546875 136.785156 C 174.734375 136.394531 175.933594 136.042969 177.148438 135.726562 C 178.359375 135.414062 179.578125 135.140625 180.808594 134.90625 C 182.035156 134.671875 183.273438 134.476562 184.515625 134.324219 C 185.757812 134.167969 187 134.054688 188.25 133.980469 C 189.5 133.90625 190.75 133.875 192 133.882812 C 193.253906 133.890625 194.503906 133.9375 195.75 134.027344 C 197 134.117188 198.242188 134.246094 199.484375 134.414062 C 200.722656 134.582031 201.957031 134.792969 203.183594 135.042969 C 204.410156 135.289062 205.625 135.578125 206.832031 135.90625 C 208.039062 136.234375 209.234375 136.601562 210.417969 137.007812 C 211.605469 137.414062 212.773438 137.859375 213.929688 138.339844 C 215.082031 138.820312 216.222656 139.339844 217.34375 139.894531 C 218.464844 140.453125 219.566406 141.042969 220.648438 141.667969 C 221.730469 142.296875 222.792969 142.957031 223.832031 143.652344 C 224.875 144.351562 225.890625 145.078125 226.882812 145.839844 C 227.875 146.601562 228.84375 147.394531 229.785156 148.21875 C 230.726562 149.042969 231.640625 149.898438 232.523438 150.78125 C 233.410156 151.664062 234.265625 152.578125 235.09375 153.515625 C 235.921875 154.457031 236.714844 155.421875 237.480469 156.410156 C 238.246094 157.402344 238.976562 158.417969 239.675781 159.457031 C 240.375 160.492188 241.039062 161.554688 241.667969 162.636719 C 242.296875 163.714844 242.890625 164.816406 243.449219 165.9375 C 244.007812 167.058594 244.527344 168.195312 245.011719 169.347656 C 245.496094 170.5 245.945312 171.667969 246.355469 172.851562 C 246.761719 174.035156 247.132812 175.230469 247.464844 176.4375 C 247.796875 177.644531 248.085938 178.859375 248.339844 180.085938 C 248.589844 181.308594 248.804688 182.542969 248.976562 183.78125 C 249.148438 185.023438 249.28125 186.265625 249.375 187.511719 C 249.464844 188.761719 249.515625 190.011719 249.527344 191.261719 C 249.539062 192.511719 249.507812 193.765625 249.4375 195.011719 C 249.367188 196.261719 249.257812 197.507812 249.105469 198.75 C 248.953125 199.992188 248.761719 201.230469 248.53125 202.457031 C 248.300781 203.6875 248.03125 204.910156 247.71875 206.121094 C 247.410156 207.332031 247.058594 208.535156 246.671875 209.722656 C 246.28125 210.914062 245.855469 212.089844 245.390625 213.25 C 244.925781 214.414062 244.425781 215.558594 243.886719 216.6875 C 243.347656 217.816406 242.773438 218.929688 242.160156 220.019531 C 241.550781 221.113281 240.902344 222.183594 240.222656 223.234375 C 239.542969 224.285156 238.828125 225.3125 238.082031 226.316406 C 237.335938 227.320312 236.554688 228.296875 235.746094 229.25 C 234.933594 230.203125 234.09375 231.128906 233.222656 232.027344 C 232.355469 232.929688 231.453125 233.796875 230.527344 234.636719 C 229.601562 235.480469 228.648438 236.289062 227.667969 237.066406 C 226.6875 237.847656 225.683594 238.59375 224.65625 239.304688 C 223.628906 240.019531 222.578125 240.699219 221.507812 241.34375 C 220.433594 241.988281 219.34375 242.601562 218.230469 243.175781 C 217.121094 243.75 215.992188 244.289062 214.84375 244.789062 C 213.699219 245.289062 212.535156 245.753906 211.359375 246.179688 C 210.183594 246.605469 208.992188 246.992188 207.792969 247.34375 C 206.589844 247.691406 205.378906 248 204.15625 248.273438 C 202.933594 248.542969 201.707031 248.773438 200.46875 248.964844 C 199.230469 249.15625 197.992188 249.304688 196.742188 249.414062 C 195.496094 249.523438 194.25 249.59375 192.996094 249.625 C 191.746094 249.652344 190.496094 249.640625 189.246094 249.589844 C 187.996094 249.539062 186.75 249.445312 185.503906 249.3125 C 184.257812 249.179688 183.019531 249.007812 181.789062 248.792969 C 180.554688 248.578125 179.328125 248.328125 178.113281 248.035156 C 176.898438 247.742188 175.691406 247.410156 174.496094 247.039062 C 173.300781 246.667969 172.117188 246.257812 170.949219 245.8125 C 169.78125 245.363281 168.628906 244.878906 167.492188 244.355469 C 166.355469 243.835938 165.234375 243.277344 164.132812 242.679688 C 163.035156 242.085938 161.953125 241.457031 160.894531 240.789062 C 159.832031 240.125 158.796875 239.425781 157.78125 238.695312 C 156.765625 237.960938 155.777344 237.199219 154.8125 236.402344 C 153.84375 235.605469 152.90625 234.777344 151.996094 233.921875 C 151.085938 233.0625 150.203125 232.179688 149.347656 231.261719 C 148.492188 230.347656 147.667969 229.40625 146.875 228.4375 C 146.082031 227.472656 145.324219 226.480469 144.59375 225.460938 C 143.867188 224.445312 143.171875 223.402344 142.507812 222.339844 C 141.847656 221.277344 141.222656 220.195312 140.632812 219.09375 C 140.039062 217.992188 139.484375 216.871094 138.96875 215.730469 C 138.449219 214.589844 137.96875 213.4375 137.523438 212.265625 C 137.082031 211.097656 136.675781 209.914062 136.308594 208.714844 C 135.945312 207.519531 135.617188 206.3125 135.328125 205.09375 C 135.039062 203.878906 134.792969 202.652344 134.582031 201.417969 C 134.375 200.183594 134.203125 198.945312 134.078125 197.699219 C 133.949219 196.457031 133.859375 195.207031 133.8125 193.957031 C 133.765625 192.707031 133.757812 191.457031 133.792969 190.207031 C 133.824219 188.953125 133.898438 187.707031 134.015625 186.460938 C 134.128906 185.214844 134.285156 183.972656 134.480469 182.738281 C 134.671875 181.5 134.910156 180.273438 135.183594 179.050781 C 135.457031 177.832031 135.773438 176.621094 136.125 175.417969 C 136.480469 174.21875 136.871094 173.03125 137.300781 171.855469 C 137.730469 170.679688 138.199219 169.519531 138.703125 168.375 Z M 142.980469 168.375 " fill-opacity="1" fill-rule="evenodd"/></svg>