<svg xmlns="http://www.w3.org/2000/svg" xmlns:xlink="http://www.w3.org/1999/xlink" width="512" zoomAndPan="magnify" viewBox="0 0 384 383.999986" height="512" preserveAspectRatio="xMidYMid meet" version="1.0"><defs><clipPath id="7f0ce62a41"><path d="M 16.417969 0 L 366 0 C 370.773438 0 375.351562 1.894531 378.726562 5.273438 C 382.105469 8.648438 384 13.226562 384 18 L 384 366 C 384 375.941406 375.941406 384 366 384 L 16.417969 384 C 11.644531 384 7.066406 382.105469 3.691406 378.726562 C 0.316406 375.351562 -1.582031 370.773438 -1.582031 366 L -1.582031 18 C -1.582031 13.226562 0.316406 8.648438 3.691406 5.273438 C 7.066406 1.894531 11.644531 0 16.417969 0 Z M 16.417969 0 " clip-rule="nonzero"/></clipPath><clipPath id="b7f7ef1a9c"><path d="M 0 0 L 384 0 L 384 384 L 0 384 Z M 0 0 " clip-rule="nonzero"/></clipPath><clipPath id="45fad662ac"><path d="M 16.417969 0 L 366 0 C 370.773438 0 375.351562 1.894531 378.726562 5.273438 C 382.105469 8.648438 384 13.226562 384 18 L 384 366 C 384 375.941406 375.941406 384 366 384 L 16.417969 384 C 11.644531 384 7.066406 382.105469 3.691406 378.726562 C 0.316406 375.351562 -1.582031 370.773438 -1.582031 366 L -1.582031 18 C -1.582031 13.226562 0.316406 8.648438 3.691406 5.273438 C 7.066406 1.894531 11.644531 0 16.417969 0 Z M 16.417969 0 " clip-rule="nonzero"/></clipPath><clipPath id="333c63aaff"><rect x="0" width="384" y="0" height="384"/></clipPath></defs><g clip-path="url(#7f0ce62a41)"><g><g clip-path="url(#333c63aaff)"><g clip-path="url(#b7f7ef1a9c)"><g clip-path="url(#45fad662ac)"><path fill="#ccff00" d="M -1.582031 0 L 383.917969 0 L 383.917969 384 L -1.582031 384 Z M -1.582031 0 " fill-opacity="1" fill-rule="nonzero"/></g></g></g></g></g><path fill="#000000" d="M 287.828125 192.289062 C 287.824219 194.046875 287.777344 195.800781 287.679688 197.558594 C 287.582031 199.3125 287.433594 201.066406 287.238281 202.8125 C 287.046875 204.558594 286.804688 206.300781 286.511719 208.035156 C 286.222656 209.769531 285.882812 211.492188 285.496094 213.207031 C 285.113281 214.921875 284.679688 216.625 284.199219 218.316406 C 283.71875 220.007812 283.191406 221.6875 282.621094 223.347656 C 282.046875 225.011719 281.429688 226.65625 280.765625 228.285156 C 280.105469 229.910156 279.394531 231.519531 278.644531 233.109375 C 277.890625 234.699219 277.097656 236.265625 276.257812 237.8125 C 275.417969 239.355469 274.539062 240.878906 273.617188 242.375 C 272.695312 243.871094 271.730469 245.339844 270.726562 246.785156 C 269.722656 248.226562 268.679688 249.640625 267.597656 251.027344 C 266.515625 252.414062 265.398438 253.769531 264.242188 255.09375 C 263.085938 256.417969 261.890625 257.707031 260.664062 258.964844 C 259.4375 260.226562 258.175781 261.449219 256.878906 262.636719 C 255.582031 263.824219 254.257812 264.976562 252.898438 266.09375 C 251.539062 267.207031 250.148438 268.285156 248.730469 269.324219 C 247.3125 270.363281 245.867188 271.359375 244.394531 272.320312 C 242.917969 273.277344 241.421875 274.195312 239.894531 275.074219 C 238.371094 275.949219 236.824219 276.78125 235.253906 277.574219 C 233.683594 278.363281 232.09375 279.109375 230.480469 279.8125 C 228.871094 280.515625 227.238281 281.171875 225.59375 281.785156 C 223.945312 282.398438 222.28125 282.964844 220.601562 283.488281 C 218.921875 284.007812 217.230469 284.484375 215.523438 284.910156 C 213.820312 285.339844 212.105469 285.71875 210.378906 286.050781 C 208.652344 286.382812 206.917969 286.667969 205.175781 286.90625 C 203.433594 287.144531 201.6875 287.332031 199.933594 287.472656 C 198.179688 287.613281 196.425781 287.707031 194.667969 287.75 C 192.910156 287.792969 191.152344 287.789062 189.394531 287.734375 C 187.636719 287.683594 185.882812 287.582031 184.132812 287.429688 C 182.378906 287.28125 180.632812 287.082031 178.894531 286.835938 C 177.152344 286.589844 175.421875 286.292969 173.695312 285.953125 C 171.972656 285.609375 170.257812 285.222656 168.554688 284.785156 C 166.851562 284.347656 165.160156 283.863281 163.484375 283.335938 C 161.808594 282.804688 160.148438 282.226562 158.503906 281.605469 C 156.859375 280.984375 155.234375 280.320312 153.625 279.605469 C 152.019531 278.894531 150.429688 278.140625 148.863281 277.339844 C 147.300781 276.542969 145.757812 275.699219 144.238281 274.816406 C 142.71875 273.933594 141.222656 273.007812 139.753906 272.039062 C 138.285156 271.074219 136.84375 270.066406 135.433594 269.019531 C 134.019531 267.972656 132.636719 266.890625 131.285156 265.765625 C 129.929688 264.644531 128.609375 263.484375 127.320312 262.289062 C 126.03125 261.09375 124.777344 259.863281 123.554688 258.597656 C 122.335938 257.335938 121.148438 256.035156 120 254.707031 C 118.851562 253.375 117.738281 252.015625 116.664062 250.625 C 115.589844 249.230469 114.554688 247.8125 113.558594 246.363281 C 112.5625 244.914062 111.605469 243.4375 110.691406 241.9375 C 109.777344 240.4375 108.90625 238.910156 108.074219 237.359375 C 107.246094 235.8125 106.457031 234.238281 105.714844 232.648438 C 104.96875 231.054688 104.269531 229.441406 103.617188 227.808594 C 102.960938 226.179688 102.351562 224.527344 101.789062 222.863281 C 101.226562 221.199219 100.707031 219.519531 100.238281 217.824219 C 99.765625 216.132812 99.34375 214.425781 98.96875 212.707031 C 98.589844 210.992188 98.261719 209.265625 97.980469 207.527344 C 97.699219 205.792969 97.464844 204.050781 97.28125 202.304688 C 97.09375 200.554688 96.957031 198.804688 96.871094 197.046875 C 96.78125 195.292969 96.742188 193.535156 96.75 191.777344 C 96.757812 190.019531 96.816406 188.261719 96.921875 186.507812 C 97.027344 184.75 97.179688 183 97.382812 181.253906 C 97.585938 179.507812 97.835938 177.769531 98.132812 176.035156 C 98.429688 174.304688 98.777344 172.578125 99.171875 170.867188 C 99.5625 169.152344 100.003906 167.453125 100.492188 165.761719 C 100.976562 164.074219 101.511719 162.398438 102.089844 160.738281 C 102.671875 159.078125 103.296875 157.4375 103.964844 155.8125 L 69.636719 155.8125 C 68.90625 158.253906 68.25 160.714844 67.671875 163.195312 C 67.089844 165.675781 66.582031 168.171875 66.148438 170.683594 C 65.71875 173.195312 65.359375 175.71875 65.078125 178.25 C 64.796875 180.785156 64.589844 183.324219 64.460938 185.867188 C 64.332031 188.414062 64.277344 190.960938 64.296875 193.507812 C 64.320312 196.054688 64.417969 198.601562 64.589844 201.144531 C 64.765625 203.6875 65.015625 206.222656 65.339844 208.75 C 65.664062 211.277344 66.066406 213.792969 66.539062 216.296875 C 67.015625 218.800781 67.566406 221.285156 68.1875 223.757812 C 68.8125 226.226562 69.507812 228.679688 70.277344 231.105469 C 71.050781 233.535156 71.890625 235.941406 72.804688 238.320312 C 73.71875 240.699219 74.703125 243.046875 75.753906 245.367188 C 76.808594 247.6875 77.929688 249.976562 79.121094 252.230469 C 80.3125 254.480469 81.570312 256.699219 82.890625 258.875 C 84.214844 261.054688 85.601562 263.191406 87.050781 265.285156 C 88.5 267.382812 90.011719 269.433594 91.585938 271.4375 C 93.15625 273.441406 94.789062 275.398438 96.476562 277.308594 C 98.167969 279.214844 99.910156 281.070312 101.710938 282.875 C 103.511719 284.679688 105.363281 286.425781 107.269531 288.121094 C 109.171875 289.8125 111.128906 291.449219 113.128906 293.023438 C 115.132812 294.601562 117.179688 296.117188 119.269531 297.570312 C 121.363281 299.027344 123.5 300.417969 125.675781 301.742188 C 127.847656 303.070312 130.0625 304.332031 132.3125 305.527344 C 134.566406 306.71875 136.847656 307.847656 139.167969 308.90625 C 141.484375 309.964844 143.832031 310.953125 146.210938 311.871094 C 148.585938 312.789062 150.988281 313.636719 153.417969 314.410156 C 155.84375 315.183594 158.292969 315.886719 160.765625 316.515625 C 163.234375 317.144531 165.71875 317.699219 168.222656 318.179688 C 170.726562 318.660156 173.238281 319.0625 175.765625 319.394531 C 178.292969 319.722656 180.828125 319.976562 183.371094 320.15625 C 185.914062 320.335938 188.457031 320.4375 191.003906 320.464844 C 193.554688 320.492188 196.101562 320.441406 198.644531 320.316406 C 201.191406 320.191406 203.730469 319.992188 206.265625 319.714844 C 208.796875 319.4375 211.320312 319.085938 213.832031 318.65625 C 216.34375 318.230469 218.84375 317.726562 221.324219 317.152344 C 223.804688 316.574219 226.269531 315.925781 228.710938 315.203125 C 231.15625 314.476562 233.574219 313.683594 235.972656 312.8125 C 238.367188 311.945312 240.734375 311.007812 243.074219 309.996094 C 245.414062 308.988281 247.722656 307.910156 250 306.761719 C 252.273438 305.617188 254.515625 304.402344 256.71875 303.121094 C 258.921875 301.839844 261.082031 300.496094 263.207031 299.085938 C 265.328125 297.675781 267.40625 296.203125 269.441406 294.667969 C 271.476562 293.136719 273.464844 291.542969 275.40625 289.890625 C 277.34375 288.234375 279.234375 286.527344 281.070312 284.761719 C 282.910156 282.996094 284.691406 281.175781 286.421875 279.304688 C 288.148438 277.433594 289.820312 275.511719 291.4375 273.539062 C 293.050781 271.566406 294.605469 269.550781 296.097656 267.484375 C 297.59375 265.421875 299.023438 263.3125 300.390625 261.164062 C 301.761719 259.011719 303.0625 256.824219 304.300781 254.597656 C 305.539062 252.371094 306.707031 250.105469 307.808594 247.808594 C 308.914062 245.511719 309.945312 243.183594 310.910156 240.824219 C 311.871094 238.464844 312.765625 236.078125 313.585938 233.664062 C 314.40625 231.253906 315.15625 228.820312 315.828125 226.363281 C 316.503906 223.902344 317.105469 221.429688 317.636719 218.9375 C 318.164062 216.441406 318.617188 213.9375 318.992188 211.417969 C 319.371094 208.894531 319.675781 206.367188 319.902344 203.828125 C 320.128906 201.289062 320.28125 198.746094 320.355469 196.199219 C 320.429688 193.652344 320.429688 191.105469 320.355469 188.558594 C 320.277344 186.011719 320.125 183.46875 319.894531 180.929688 C 319.667969 178.390625 319.363281 175.863281 318.984375 173.34375 C 318.605469 170.824219 318.152344 168.316406 317.621094 165.824219 C 317.09375 163.332031 316.488281 160.855469 315.8125 158.398438 C 315.136719 155.941406 314.386719 153.507812 313.5625 151.097656 C 312.742188 148.683594 311.847656 146.300781 310.882812 143.941406 C 309.917969 141.582031 308.886719 139.253906 307.78125 136.957031 C 306.679688 134.660156 305.507812 132.398438 304.269531 130.171875 C 303.03125 127.941406 301.726562 125.753906 300.355469 123.605469 C 298.988281 121.457031 297.554688 119.351562 296.058594 117.285156 C 294.566406 115.222656 293.007812 113.207031 291.394531 111.234375 C 289.777344 109.261719 288.105469 107.34375 286.375 105.472656 C 284.644531 103.601562 282.863281 101.78125 281.023438 100.019531 C 279.183594 98.253906 277.292969 96.546875 275.355469 94.894531 C 273.414062 93.242188 271.425781 91.648438 269.390625 90.117188 C 267.355469 88.582031 265.273438 87.113281 263.152344 85.703125 C 261.027344 84.292969 258.863281 82.949219 256.660156 81.671875 C 254.457031 80.390625 252.214844 79.179688 249.941406 78.03125 C 247.664062 76.886719 245.355469 75.808594 243.015625 74.800781 C 240.675781 73.792969 238.304688 72.855469 235.910156 71.988281 C 233.511719 71.121094 231.09375 70.328125 228.648438 69.605469 C 226.207031 68.882812 223.742188 68.234375 221.257812 67.660156 C 218.777344 67.082031 216.28125 66.582031 213.765625 66.15625 C 211.253906 65.730469 208.730469 65.378906 206.199219 65.105469 C 203.664062 64.828125 201.125 64.628906 198.578125 64.503906 C 196.035156 64.378906 193.488281 64.332031 190.941406 64.359375 C 188.390625 64.390625 185.847656 64.492188 183.304688 64.671875 C 180.761719 64.851562 178.226562 65.109375 175.703125 65.441406 C 173.175781 65.773438 170.660156 66.179688 168.15625 66.660156 C 165.65625 67.140625 163.167969 67.695312 160.699219 68.328125 C 158.230469 68.957031 155.78125 69.660156 153.355469 70.4375 C 150.925781 71.210938 148.527344 72.058594 146.148438 72.980469 C 143.773438 73.898438 141.425781 74.886719 139.105469 75.949219 C 136.789062 77.007812 134.503906 78.132812 132.253906 79.332031 C 130.003906 80.527344 127.792969 81.789062 125.617188 83.117188 C 123.441406 84.445312 121.308594 85.835938 119.21875 87.292969 C 117.125 88.746094 115.078125 90.261719 113.078125 91.839844 C 111.074219 93.417969 109.125 95.054688 107.21875 96.75 L 192.289062 96.75 C 193.851562 96.75 195.414062 96.789062 196.976562 96.863281 C 198.535156 96.941406 200.097656 97.054688 201.652344 97.210938 C 203.207031 97.363281 204.757812 97.554688 206.304688 97.785156 C 207.851562 98.011719 209.390625 98.28125 210.925781 98.585938 C 212.460938 98.890625 213.984375 99.234375 215.5 99.613281 C 217.015625 99.992188 218.523438 100.410156 220.019531 100.863281 C 221.515625 101.320312 223 101.808594 224.472656 102.335938 C 225.945312 102.863281 227.402344 103.425781 228.847656 104.023438 C 230.292969 104.621094 231.722656 105.253906 233.132812 105.925781 C 234.546875 106.59375 235.945312 107.296875 237.324219 108.03125 C 238.703125 108.769531 240.0625 109.539062 241.402344 110.34375 C 242.742188 111.148438 244.0625 111.984375 245.363281 112.851562 C 246.664062 113.722656 247.941406 114.621094 249.199219 115.550781 C 250.453125 116.484375 251.6875 117.445312 252.894531 118.4375 C 254.101562 119.429688 255.285156 120.449219 256.445312 121.5 C 257.605469 122.550781 258.734375 123.628906 259.839844 124.734375 C 260.945312 125.839844 262.023438 126.972656 263.074219 128.128906 C 264.125 129.289062 265.144531 130.472656 266.136719 131.679688 C 267.128906 132.890625 268.089844 134.121094 269.023438 135.378906 C 269.953125 136.632812 270.855469 137.910156 271.722656 139.210938 C 272.589844 140.511719 273.425781 141.832031 274.230469 143.171875 C 275.035156 144.515625 275.804688 145.875 276.542969 147.253906 C 277.28125 148.632812 277.984375 150.027344 278.652344 151.441406 C 279.320312 152.855469 279.953125 154.285156 280.550781 155.726562 C 281.148438 157.171875 281.710938 158.628906 282.238281 160.101562 C 282.765625 161.574219 283.257812 163.058594 283.710938 164.554688 C 284.164062 166.050781 284.582031 167.558594 284.960938 169.074219 C 285.339844 170.589844 285.683594 172.117188 285.988281 173.648438 C 286.292969 175.183594 286.5625 176.722656 286.792969 178.269531 C 287.019531 179.816406 287.210938 181.367188 287.367188 182.921875 C 287.519531 184.480469 287.632812 186.039062 287.710938 187.601562 C 287.789062 189.160156 287.828125 190.722656 287.828125 192.289062 Z M 63.207031 130.332031 L 159.554688 130.332031 C 158.308594 130.992188 157.082031 131.6875 155.875 132.421875 C 154.671875 133.152344 153.488281 133.921875 152.328125 134.726562 C 151.167969 135.53125 150.035156 136.367188 148.925781 137.242188 C 147.816406 138.113281 146.734375 139.019531 145.683594 139.957031 C 144.628906 140.894531 143.601562 141.867188 142.605469 142.867188 C 141.613281 143.867188 140.648438 144.894531 139.714844 145.953125 C 138.78125 147.011719 137.878906 148.097656 137.011719 149.210938 C 136.144531 150.320312 135.3125 151.460938 134.511719 152.621094 C 133.714844 153.785156 132.949219 154.972656 132.222656 156.179688 C 131.496094 157.390625 130.804688 158.621094 130.152344 159.871094 C 129.5 161.121094 128.882812 162.390625 128.308594 163.679688 C 127.730469 164.96875 127.195312 166.273438 126.695312 167.59375 C 126.199219 168.914062 125.742188 170.246094 125.324219 171.59375 C 124.90625 172.941406 124.53125 174.300781 124.195312 175.671875 C 123.863281 177.042969 123.570312 178.421875 123.316406 179.8125 C 123.066406 181.199219 122.855469 182.59375 122.6875 183.996094 C 122.523438 185.398438 122.398438 186.800781 122.3125 188.210938 C 122.230469 189.617188 122.191406 191.027344 122.195312 192.441406 C 122.199219 193.851562 122.242188 195.261719 122.332031 196.667969 C 122.417969 198.078125 122.550781 199.480469 122.722656 200.882812 C 122.894531 202.28125 123.109375 203.675781 123.367188 205.0625 C 123.621094 206.453125 123.921875 207.828125 124.261719 209.199219 C 124.601562 210.570312 124.984375 211.925781 125.40625 213.273438 C 125.828125 214.621094 126.289062 215.953125 126.792969 217.269531 C 127.296875 218.589844 127.835938 219.890625 128.417969 221.175781 C 129 222.460938 129.621094 223.730469 130.277344 224.976562 C 130.933594 226.226562 131.628906 227.453125 132.363281 228.660156 C 133.09375 229.867188 133.863281 231.050781 134.664062 232.210938 C 135.46875 233.371094 136.308594 234.503906 137.179688 235.613281 C 138.050781 236.722656 138.957031 237.804688 139.894531 238.859375 C 140.832031 239.914062 141.796875 240.941406 142.796875 241.9375 C 143.796875 242.933594 144.824219 243.898438 145.882812 244.832031 C 146.941406 245.765625 148.027344 246.667969 149.136719 247.535156 C 150.25 248.402344 151.386719 249.238281 152.550781 250.039062 C 153.710938 250.835938 154.898438 251.601562 156.105469 252.328125 C 157.316406 253.058594 158.542969 253.75 159.796875 254.402344 C 161.046875 255.058594 162.3125 255.671875 163.601562 256.25 C 164.890625 256.828125 166.191406 257.363281 167.511719 257.863281 C 168.832031 258.363281 170.167969 258.820312 171.515625 259.238281 C 172.863281 259.65625 174.222656 260.035156 175.59375 260.371094 C 176.960938 260.707031 178.34375 261 179.730469 261.25 C 181.117188 261.503906 182.511719 261.714844 183.914062 261.882812 C 185.316406 262.050781 186.71875 262.175781 188.128906 262.261719 C 189.539062 262.34375 190.945312 262.386719 192.359375 262.382812 C 193.769531 262.382812 195.179688 262.335938 196.585938 262.25 C 197.996094 262.164062 199.398438 262.035156 200.800781 261.863281 C 202.203125 261.691406 203.59375 261.476562 204.984375 261.222656 C 206.371094 260.964844 207.75 260.667969 209.117188 260.328125 C 210.488281 259.988281 211.847656 259.609375 213.195312 259.1875 C 214.539062 258.765625 215.875 258.304688 217.191406 257.804688 C 218.511719 257.300781 219.8125 256.761719 221.097656 256.179688 C 222.386719 255.601562 223.652344 254.980469 224.902344 254.324219 C 226.152344 253.667969 227.378906 252.972656 228.585938 252.242188 C 229.792969 251.511719 230.976562 250.742188 232.136719 249.941406 C 233.296875 249.136719 234.433594 248.300781 235.542969 247.429688 C 236.652344 246.558594 237.734375 245.65625 238.789062 244.71875 C 239.84375 243.78125 240.871094 242.8125 241.867188 241.816406 C 242.867188 240.816406 243.832031 239.789062 244.765625 238.730469 C 245.699219 237.675781 246.601562 236.589844 247.472656 235.480469 C 248.339844 234.367188 249.175781 233.230469 249.976562 232.070312 C 250.777344 230.90625 251.542969 229.722656 252.273438 228.515625 C 253 227.304688 253.691406 226.078125 254.347656 224.828125 C 255.003906 223.578125 255.621094 222.308594 256.199219 221.023438 C 256.777344 219.734375 257.316406 218.429688 257.8125 217.113281 C 258.3125 215.792969 258.773438 214.457031 259.191406 213.109375 C 259.609375 211.761719 259.988281 210.40625 260.324219 209.035156 C 260.664062 207.664062 260.957031 206.285156 261.210938 204.898438 C 261.464844 203.507812 261.675781 202.113281 261.84375 200.714844 C 262.015625 199.3125 262.140625 197.90625 262.226562 196.5 C 262.308594 195.089844 262.351562 193.679688 262.351562 192.269531 C 262.351562 190.859375 262.308594 189.449219 262.222656 188.039062 C 262.136719 186.632812 262.007812 185.226562 261.835938 183.828125 C 261.664062 182.425781 261.453125 181.03125 261.199219 179.644531 C 260.941406 178.257812 260.648438 176.878906 260.308594 175.507812 C 259.96875 174.136719 259.589844 172.777344 259.171875 171.433594 C 258.75 170.085938 258.289062 168.753906 257.789062 167.433594 C 257.289062 166.113281 256.746094 164.8125 256.167969 163.523438 C 255.589844 162.238281 254.972656 160.96875 254.316406 159.71875 C 253.660156 158.472656 252.964844 157.242188 252.234375 156.035156 C 251.503906 154.828125 250.738281 153.644531 249.9375 152.484375 C 249.136719 151.320312 248.300781 150.1875 247.429688 149.074219 C 246.558594 147.964844 245.65625 146.882812 244.71875 145.824219 C 243.785156 144.769531 242.816406 143.742188 241.820312 142.746094 C 240.820312 141.746094 239.792969 140.78125 238.738281 139.84375 C 237.679688 138.910156 236.597656 138.007812 235.488281 137.136719 C 234.375 136.265625 233.238281 135.429688 232.078125 134.628906 C 230.917969 133.828125 229.734375 133.0625 228.523438 132.332031 C 227.316406 131.601562 226.089844 130.910156 224.839844 130.253906 C 223.589844 129.597656 222.320312 128.980469 221.035156 128.402344 C 219.75 127.820312 218.445312 127.28125 217.125 126.78125 C 215.808594 126.28125 214.472656 125.820312 213.125 125.402344 C 211.777344 124.980469 210.421875 124.601562 209.050781 124.265625 C 207.679688 123.925781 206.300781 123.628906 204.914062 123.375 C 203.527344 123.121094 202.132812 122.910156 200.730469 122.738281 C 199.328125 122.570312 197.925781 122.441406 196.515625 122.355469 C 195.109375 122.269531 193.699219 122.226562 192.289062 122.226562 L 55.78125 122.226562 C 57.289062 119.285156 58.894531 116.394531 60.59375 113.558594 C 62.292969 110.71875 64.082031 107.941406 65.960938 105.21875 C 67.839844 102.496094 69.808594 99.839844 71.859375 97.246094 C 73.910156 94.652344 76.042969 92.125 78.257812 89.671875 C 80.472656 87.214844 82.765625 84.832031 85.136719 82.527344 C 87.507812 80.21875 89.949219 77.992188 92.460938 75.84375 C 94.976562 73.695312 97.558594 71.628906 100.207031 69.648438 C 102.855469 67.664062 105.566406 65.773438 108.335938 63.96875 C 111.105469 62.160156 113.933594 60.449219 116.816406 58.824219 C 119.699219 57.203125 122.628906 55.675781 125.609375 54.246094 C 128.59375 52.8125 131.617188 51.476562 134.683594 50.242188 C 137.753906 49.007812 140.855469 47.871094 144 46.835938 C 147.140625 45.800781 150.3125 44.871094 153.511719 44.042969 C 156.714844 43.214844 159.941406 42.488281 163.1875 41.871094 C 166.4375 41.25 169.703125 40.738281 172.984375 40.328125 C 176.269531 39.921875 179.558594 39.621094 182.859375 39.425781 C 186.164062 39.230469 189.46875 39.144531 192.773438 39.164062 C 196.082031 39.183594 199.386719 39.3125 202.683594 39.546875 C 205.984375 39.78125 209.269531 40.121094 212.546875 40.570312 C 215.824219 41.015625 219.082031 41.570312 222.324219 42.230469 C 225.566406 42.886719 228.78125 43.652344 231.972656 44.519531 C 235.164062 45.386719 238.324219 46.355469 241.453125 47.429688 C 244.582031 48.5 247.671875 49.675781 250.726562 50.949219 C 253.777344 52.21875 256.785156 53.589844 259.75 55.058594 C 262.714844 56.527344 265.625 58.089844 268.488281 59.746094 C 271.351562 61.402344 274.15625 63.152344 276.90625 64.992188 C 279.65625 66.828125 282.339844 68.757812 284.964844 70.769531 C 287.589844 72.78125 290.144531 74.878906 292.632812 77.058594 C 295.121094 79.238281 297.535156 81.496094 299.878906 83.832031 C 302.21875 86.164062 304.484375 88.574219 306.667969 91.058594 C 308.855469 93.539062 310.957031 96.089844 312.976562 98.710938 C 314.996094 101.328125 316.929688 104.011719 318.773438 106.753906 C 320.621094 109.5 322.375 112.300781 324.039062 115.15625 C 325.703125 118.015625 327.273438 120.925781 328.75 123.886719 C 330.226562 126.84375 331.605469 129.847656 332.886719 132.898438 C 334.164062 135.949219 335.347656 139.035156 336.425781 142.160156 C 337.507812 145.289062 338.484375 148.445312 339.359375 151.632812 C 340.238281 154.824219 341.007812 158.039062 341.675781 161.277344 C 342.34375 164.515625 342.902344 167.773438 343.359375 171.050781 C 343.816406 174.324219 344.164062 177.613281 344.40625 180.910156 C 344.652344 184.210938 344.785156 187.511719 344.816406 190.820312 C 344.84375 194.128906 344.765625 197.433594 344.578125 200.734375 C 344.390625 204.035156 344.101562 207.328125 343.699219 210.613281 C 343.300781 213.894531 342.796875 217.164062 342.183594 220.414062 C 341.574219 223.664062 340.855469 226.890625 340.035156 230.09375 C 339.214844 233.296875 338.292969 236.472656 337.265625 239.617188 C 336.238281 242.761719 335.113281 245.867188 333.882812 248.9375 C 332.65625 252.007812 331.328125 255.039062 329.90625 258.023438 C 328.480469 261.007812 326.960938 263.941406 325.347656 266.828125 C 323.730469 269.714844 322.023438 272.546875 320.226562 275.320312 C 318.425781 278.097656 316.539062 280.8125 314.566406 283.464844 C 312.59375 286.117188 310.535156 288.703125 308.390625 291.226562 C 306.25 293.746094 304.027344 296.191406 301.726562 298.566406 C 299.425781 300.945312 297.050781 303.242188 294.597656 305.464844 C 292.148438 307.683594 289.628906 309.824219 287.039062 311.882812 C 284.453125 313.941406 281.796875 315.914062 279.082031 317.800781 C 276.363281 319.6875 273.589844 321.480469 270.757812 323.1875 C 267.921875 324.894531 265.039062 326.507812 262.097656 328.023438 C 259.160156 329.542969 256.175781 330.964844 253.148438 332.292969 C 250.117188 333.617188 247.046875 334.84375 243.9375 335.96875 C 240.828125 337.09375 237.683594 338.121094 234.507812 339.042969 C 231.332031 339.964844 228.128906 340.78125 224.902344 341.496094 C 221.671875 342.210938 218.421875 342.820312 215.152344 343.324219 C 211.886719 343.828125 208.601562 344.226562 205.308594 344.519531 C 202.015625 344.808594 198.714844 344.992188 195.40625 345.070312 C 192.101562 345.148438 188.796875 345.117188 185.492188 344.980469 C 182.1875 344.84375 178.890625 344.597656 175.601562 344.246094 C 172.3125 343.894531 169.039062 343.4375 165.78125 342.875 C 162.519531 342.3125 159.28125 341.640625 156.066406 340.867188 C 152.851562 340.09375 149.664062 339.21875 146.507812 338.238281 C 143.347656 337.257812 140.222656 336.175781 137.136719 334.992188 C 134.046875 333.8125 131 332.527344 127.992188 331.148438 C 124.988281 329.769531 122.03125 328.292969 119.121094 326.71875 C 116.210938 325.148438 113.355469 323.480469 110.554688 321.726562 C 107.753906 319.96875 105.011719 318.121094 102.328125 316.183594 C 99.644531 314.25 97.03125 312.230469 94.480469 310.125 C 91.929688 308.019531 89.449219 305.832031 87.039062 303.566406 C 84.628906 301.300781 82.296875 298.960938 80.039062 296.542969 C 77.78125 294.125 75.605469 291.636719 73.507812 289.078125 C 71.414062 286.519531 69.402344 283.898438 67.476562 281.207031 C 65.550781 278.519531 63.714844 275.769531 61.964844 272.964844 C 60.21875 270.15625 58.566406 267.292969 57.003906 264.378906 C 55.441406 261.460938 53.976562 258.5 52.605469 255.488281 C 51.234375 252.480469 49.964844 249.425781 48.792969 246.335938 C 47.621094 243.242188 46.550781 240.113281 45.582031 236.953125 C 44.613281 233.789062 43.746094 230.597656 42.984375 227.382812 C 42.222656 224.164062 41.566406 220.921875 41.015625 217.660156 C 40.464844 214.402344 40.015625 211.125 39.679688 207.835938 C 39.339844 204.546875 39.105469 201.25 38.980469 197.941406 C 38.855469 194.636719 38.835938 191.332031 38.925781 188.027344 C 39.015625 184.71875 39.210938 181.421875 39.511719 178.125 C 39.816406 174.832031 40.226562 171.554688 40.742188 168.285156 C 41.257812 165.019531 41.878906 161.773438 42.605469 158.546875 C 43.332031 155.320312 44.160156 152.121094 45.09375 148.945312 C 46.027344 145.773438 47.0625 142.636719 48.199219 139.53125 C 49.339844 136.421875 50.574219 133.359375 51.910156 130.332031 Z M 63.207031 130.332031 " fill-opacity="1" fill-rule="evenodd"/></svg>