<svg xmlns="http://www.w3.org/2000/svg" xmlns:xlink="http://www.w3.org/1999/xlink" width="518" zoomAndPan="magnify" viewBox="0 0 388.5 54" height="72" preserveAspectRatio="xMidYMid meet" version="1.0"><defs><clipPath id="4f3aa01375"><path d="M 3.285156 5 L 46 5 L 46 49 L 3.285156 49 Z M 3.285156 5 " clip-rule="nonzero"/></clipPath><clipPath id="fe95917db1"><path d="M 374 4 L 384.722656 4 L 384.722656 48 L 374 48 Z M 374 4 " clip-rule="nonzero"/></clipPath></defs><g clip-path="url(#4f3aa01375)"><path fill="#000000" d="M 24.929688 48.085938 C 21.03125 48.183594 17.363281 47.316406 13.917969 45.484375 C 12.375 44.628906 10.984375 43.578125 9.742188 42.324219 C 8.5 41.074219 7.457031 39.671875 6.613281 38.121094 C 4.761719 34.640625 3.882812 30.929688 3.980469 26.988281 C 3.875 23.019531 4.753906 19.285156 6.613281 15.78125 C 7.457031 14.238281 8.5 12.847656 9.742188 11.601562 C 10.984375 10.359375 12.378906 9.316406 13.917969 8.476562 C 17.363281 6.65625 21.035156 5.796875 24.929688 5.890625 C 28.828125 5.796875 32.511719 6.648438 35.972656 8.445312 C 37.519531 9.28125 38.910156 10.316406 40.152344 11.558594 C 41.390625 12.800781 42.429688 14.191406 43.261719 15.734375 C 45.101562 19.261719 45.96875 23.011719 45.863281 26.988281 C 45.957031 30.945312 45.082031 34.671875 43.234375 38.171875 C 42.394531 39.726562 41.351562 41.128906 40.109375 42.382812 C 38.867188 43.636719 37.46875 44.6875 35.921875 45.535156 C 32.476562 47.339844 28.8125 48.191406 24.929688 48.085938 Z M 24.929688 40.601562 C 28.855469 40.601562 31.890625 39.375 34.035156 36.921875 C 36.183594 34.464844 37.257812 31.160156 37.269531 27.003906 C 37.269531 22.820312 36.199219 19.507812 34.058594 17.0625 C 31.917969 14.617188 28.875 13.390625 24.929688 13.378906 C 21 13.378906 17.964844 14.605469 15.820312 17.0625 C 13.675781 19.515625 12.59375 22.828125 12.578125 27.003906 C 12.578125 31.15625 13.660156 34.460938 15.820312 36.921875 C 17.980469 39.378906 21.015625 40.609375 24.929688 40.601562 Z M 24.929688 40.601562 " fill-opacity="1" fill-rule="nonzero"/></g><path fill="#000000" d="M 53.710938 47.480469 L 53.710938 25.390625 L 49.566406 25.390625 L 49.566406 17.121094 L 58.0625 17.121094 L 58.0625 22.089844 L 60.191406 22.089844 C 61.324219 20.363281 62.796875 19.007812 64.609375 18.019531 C 66.710938 16.964844 68.9375 16.472656 71.289062 16.546875 C 75.511719 16.546875 78.777344 17.703125 81.082031 20.015625 C 83.394531 22.320312 84.550781 25.417969 84.550781 29.292969 L 84.550781 47.480469 L 76.1875 47.480469 L 76.1875 30.882812 C 76.1875 28.660156 75.585938 26.964844 74.390625 25.800781 C 73.191406 24.640625 71.445312 24.058594 69.152344 24.058594 C 66.855469 24.058594 65.113281 24.640625 63.917969 25.800781 C 62.726562 26.964844 62.125 28.660156 62.121094 30.882812 L 62.121094 47.480469 Z M 53.710938 47.480469 " fill-opacity="1" fill-rule="nonzero"/><path fill="#000000" d="M 103.851562 48.085938 C 101.027344 48.171875 98.386719 47.515625 95.9375 46.109375 C 93.714844 44.777344 92.070312 42.933594 91.003906 40.574219 C 89.828125 37.941406 89.269531 35.183594 89.332031 32.304688 C 89.269531 29.410156 89.808594 26.636719 90.949219 23.976562 C 91.964844 21.65625 93.542969 19.820312 95.683594 18.46875 C 97.980469 17.089844 100.46875 16.4375 103.144531 16.515625 C 105.160156 16.464844 107.074219 16.875 108.886719 17.753906 C 110.476562 18.558594 111.714844 19.730469 112.605469 21.273438 L 112.804688 21.273438 L 112.804688 4.976562 L 121.207031 4.976562 L 121.207031 39.183594 L 125.351562 39.183594 L 125.351562 47.480469 L 116.855469 47.480469 L 116.855469 42.523438 L 114.726562 42.523438 C 113.660156 44.28125 112.21875 45.648438 110.40625 46.621094 C 108.34375 47.664062 106.160156 48.152344 103.851562 48.085938 Z M 105.421875 40.800781 C 106.40625 40.851562 107.363281 40.710938 108.296875 40.382812 C 109.226562 40.054688 110.058594 39.558594 110.796875 38.902344 C 111.484375 38.210938 112.003906 37.410156 112.351562 36.496094 C 112.699219 35.585938 112.847656 34.640625 112.789062 33.667969 L 112.789062 30.925781 C 112.84375 29.953125 112.695312 29.011719 112.347656 28.101562 C 112 27.191406 111.484375 26.390625 110.796875 25.699219 C 110.058594 25.039062 109.222656 24.546875 108.289062 24.214844 C 107.355469 23.886719 106.394531 23.746094 105.40625 23.800781 C 102.84375 23.800781 100.921875 24.558594 99.640625 26.082031 C 98.359375 27.597656 97.71875 29.667969 97.71875 32.304688 C 97.71875 34.941406 98.359375 37.007812 99.640625 38.527344 C 100.921875 40.042969 102.859375 40.800781 105.421875 40.800781 Z M 105.421875 40.800781 " fill-opacity="1" fill-rule="nonzero"/><path fill="#000000" d="M 137.445312 47.480469 L 127.628906 17.121094 L 136.230469 17.121094 L 142.304688 36.957031 L 142.554688 36.957031 L 149.636719 17.121094 L 157.53125 17.121094 L 164.617188 36.957031 L 164.867188 36.957031 L 170.941406 17.121094 L 179.4375 17.121094 L 169.675781 47.480469 L 160.722656 47.480469 L 153.636719 28.253906 L 153.4375 28.253906 L 146.398438 47.480469 Z M 137.445312 47.480469 " fill-opacity="1" fill-rule="nonzero"/><path fill="#000000" d="M 192.53125 48.039062 C 188.953125 48.039062 186.152344 47.171875 184.128906 45.433594 C 183.125 44.582031 182.359375 43.554688 181.828125 42.355469 C 181.292969 41.152344 181.050781 39.890625 181.097656 38.578125 C 181.097656 35.574219 182.140625 33.261719 184.234375 31.640625 C 186.324219 30.023438 189.324219 29.214844 193.238281 29.21875 L 201.941406 29.21875 L 201.941406 28.054688 C 201.941406 24.777344 199.980469 23.140625 196.050781 23.144531 C 192.644531 23.144531 190.585938 24.324219 189.882812 26.6875 L 181.488281 26.6875 C 181.734375 25.15625 182.265625 23.734375 183.082031 22.417969 C 183.894531 21.105469 184.933594 19.996094 186.191406 19.09375 C 188.644531 17.378906 191.917969 16.523438 196.007812 16.515625 C 200.519531 16.515625 203.96875 17.527344 206.351562 19.550781 C 208.738281 21.574219 209.925781 24.519531 209.917969 28.386719 L 209.917969 39.183594 L 213.886719 39.183594 L 213.886719 47.480469 L 205.394531 47.480469 L 205.394531 42.523438 L 203.269531 42.523438 C 202.246094 44.269531 200.84375 45.625 199.070312 46.597656 C 197.011719 47.632812 194.832031 48.113281 192.53125 48.039062 Z M 193.796875 41.664062 C 195.261719 41.691406 196.660156 41.40625 197.996094 40.800781 C 199.152344 40.28125 200.113281 39.511719 200.875 38.496094 C 201.601562 37.53125 201.957031 36.445312 201.941406 35.234375 L 201.941406 34.777344 L 193.605469 34.777344 C 190.574219 34.777344 189.054688 35.910156 189.054688 38.171875 C 189.03125 38.683594 189.132812 39.164062 189.355469 39.621094 C 189.578125 40.082031 189.898438 40.457031 190.316406 40.75 C 191.367188 41.425781 192.515625 41.730469 193.761719 41.664062 Z M 193.796875 41.664062 " fill-opacity="1" fill-rule="nonzero"/><path fill="#000000" d="M 220.21875 47.480469 L 220.21875 25.390625 L 216.09375 25.390625 L 216.09375 17.121094 L 224.59375 17.121094 L 224.59375 23.09375 L 226.714844 23.09375 C 227.0625 22.101562 227.566406 21.195312 228.226562 20.378906 C 228.886719 19.5625 229.667969 18.882812 230.566406 18.335938 C 232.382812 17.265625 234.347656 16.742188 236.457031 16.765625 L 239.039062 16.765625 L 239.039062 24.058594 L 236.09375 24.058594 C 233.46875 24.058594 231.539062 24.792969 230.308594 26.265625 C 229.65625 27.105469 229.171875 28.03125 228.851562 29.042969 C 228.535156 30.058594 228.402344 31.097656 228.460938 32.15625 L 228.460938 47.480469 Z M 220.21875 47.480469 " fill-opacity="1" fill-rule="nonzero"/><path fill="#000000" d="M 247.941406 14.136719 C 247.640625 14.140625 247.34375 14.113281 247.046875 14.054688 C 246.753906 14 246.464844 13.914062 246.1875 13.800781 C 245.90625 13.683594 245.640625 13.546875 245.390625 13.378906 C 245.140625 13.214844 244.90625 13.023438 244.691406 12.8125 C 244.480469 12.601562 244.289062 12.367188 244.121094 12.117188 C 243.953125 11.867188 243.808594 11.605469 243.695312 11.328125 C 243.578125 11.050781 243.488281 10.761719 243.429688 10.46875 C 243.371094 10.171875 243.339844 9.875 243.339844 9.574219 C 243.328125 8.960938 243.4375 8.371094 243.671875 7.800781 C 243.90625 7.234375 244.242188 6.738281 244.679688 6.3125 C 244.894531 6.097656 245.128906 5.90625 245.382812 5.742188 C 245.632812 5.574219 245.898438 5.433594 246.179688 5.316406 C 246.460938 5.203125 246.746094 5.117188 247.042969 5.058594 C 247.339844 5 247.640625 4.96875 247.941406 4.96875 C 248.246094 4.96875 248.546875 5 248.84375 5.058594 C 249.136719 5.117188 249.425781 5.203125 249.707031 5.316406 C 249.988281 5.433594 250.253906 5.574219 250.503906 5.742188 C 250.757812 5.90625 250.988281 6.097656 251.207031 6.3125 C 251.644531 6.738281 251.980469 7.234375 252.214844 7.800781 C 252.449219 8.371094 252.558594 8.960938 252.546875 9.574219 C 252.546875 9.875 252.519531 10.175781 252.460938 10.472656 C 252.40625 10.769531 252.316406 11.058594 252.203125 11.339844 C 252.089844 11.617188 251.945312 11.882812 251.777344 12.136719 C 251.609375 12.386719 251.421875 12.621094 251.207031 12.835938 C 250.992188 13.050781 250.757812 13.242188 250.507812 13.410156 C 250.253906 13.578125 249.988281 13.71875 249.707031 13.832031 C 249.429688 13.949219 249.140625 14.035156 248.84375 14.089844 C 248.546875 14.148438 248.246094 14.175781 247.941406 14.175781 Z M 243.746094 47.480469 L 243.746094 17.121094 L 252.175781 17.121094 L 252.175781 47.480469 Z M 243.746094 47.480469 " fill-opacity="1" fill-rule="nonzero"/><path fill="#000000" d="M 293.273438 48.085938 C 289.378906 48.183594 285.710938 47.316406 282.273438 45.484375 C 280.726562 44.632812 279.332031 43.578125 278.089844 42.328125 C 276.847656 41.074219 275.804688 39.671875 274.960938 38.121094 C 273.109375 34.632812 272.234375 30.914062 272.332031 26.964844 C 272.230469 23 273.105469 19.265625 274.960938 15.757812 C 275.804688 14.214844 276.847656 12.820312 278.089844 11.578125 C 279.335938 10.335938 280.726562 9.292969 282.273438 8.453125 C 285.71875 6.644531 289.382812 5.789062 293.273438 5.890625 C 297.175781 5.796875 300.855469 6.648438 304.320312 8.445312 C 305.863281 9.28125 307.253906 10.320312 308.492188 11.558594 C 309.730469 12.800781 310.769531 14.191406 311.601562 15.734375 C 313.445312 19.261719 314.316406 23.011719 314.207031 26.988281 C 314.304688 30.945312 313.425781 34.675781 311.574219 38.171875 C 310.734375 39.726562 309.691406 41.128906 308.449219 42.378906 C 307.207031 43.632812 305.8125 44.683594 304.269531 45.535156 C 300.824219 47.339844 297.160156 48.1875 293.273438 48.085938 Z M 293.273438 40.601562 C 297.199219 40.601562 300.238281 39.375 302.382812 36.921875 C 304.527344 34.464844 305.609375 31.160156 305.621094 27.003906 C 305.621094 22.820312 304.550781 19.507812 302.40625 17.0625 C 300.257812 14.617188 297.214844 13.390625 293.273438 13.378906 C 289.347656 13.378906 286.3125 14.605469 284.171875 17.0625 C 282.03125 19.515625 280.953125 22.828125 280.933594 27.003906 C 280.933594 31.15625 282.011719 34.460938 284.171875 36.921875 C 286.332031 39.378906 289.367188 40.609375 293.273438 40.601562 Z M 293.273438 40.601562 " fill-opacity="1" fill-rule="nonzero"/><path fill="#000000" d="M 339.414062 48.085938 C 337.105469 48.152344 334.925781 47.660156 332.867188 46.613281 C 331.054688 45.636719 329.613281 44.273438 328.539062 42.519531 L 326.417969 42.519531 L 326.417969 47.472656 L 317.914062 47.472656 L 317.914062 39.183594 L 322.066406 39.183594 L 322.066406 4.976562 L 330.460938 4.976562 L 330.460938 21.273438 L 330.667969 21.273438 C 331.578125 19.742188 332.824219 18.570312 334.40625 17.753906 C 336.210938 16.871094 338.121094 16.460938 340.128906 16.515625 C 342.8125 16.433594 345.308594 17.082031 347.609375 18.46875 C 349.746094 19.820312 351.316406 21.65625 352.324219 23.976562 C 353.46875 26.632812 354.007812 29.410156 353.941406 32.304688 C 354.003906 35.183594 353.449219 37.941406 352.277344 40.574219 C 351.210938 42.925781 349.574219 44.769531 347.367188 46.109375 C 344.902344 47.523438 342.253906 48.179688 339.414062 48.085938 Z M 337.847656 40.800781 C 340.410156 40.800781 342.335938 40.066406 343.617188 38.527344 C 344.898438 36.988281 345.539062 34.933594 345.539062 32.304688 C 345.539062 29.675781 344.898438 27.597656 343.617188 26.082031 C 342.335938 24.566406 340.410156 23.800781 337.847656 23.800781 C 336.855469 23.746094 335.890625 23.882812 334.953125 24.210938 C 334.019531 24.539062 333.179688 25.035156 332.441406 25.699219 C 331.753906 26.390625 331.242188 27.191406 330.894531 28.101562 C 330.550781 29.011719 330.40625 29.953125 330.460938 30.925781 L 330.460938 33.660156 C 330.402344 34.632812 330.546875 35.578125 330.890625 36.492188 C 331.234375 37.40625 331.753906 38.210938 332.441406 38.902344 C 333.179688 39.566406 334.019531 40.0625 334.953125 40.390625 C 335.890625 40.71875 336.855469 40.855469 337.847656 40.800781 Z M 337.847656 40.800781 " fill-opacity="1" fill-rule="nonzero"/><path fill="#000000" d="M 363.292969 14.136719 C 362.992188 14.140625 362.695312 14.113281 362.398438 14.054688 C 362.101562 14 361.816406 13.914062 361.539062 13.800781 C 361.257812 13.683594 360.992188 13.546875 360.742188 13.378906 C 360.492188 13.214844 360.257812 13.023438 360.042969 12.8125 C 359.832031 12.601562 359.640625 12.367188 359.472656 12.117188 C 359.304688 11.867188 359.160156 11.605469 359.046875 11.328125 C 358.929688 11.050781 358.839844 10.761719 358.78125 10.46875 C 358.722656 10.171875 358.691406 9.875 358.691406 9.574219 C 358.679688 8.960938 358.789062 8.371094 359.023438 7.800781 C 359.253906 7.234375 359.59375 6.738281 360.03125 6.3125 C 360.246094 6.097656 360.480469 5.90625 360.734375 5.742188 C 360.984375 5.574219 361.25 5.433594 361.53125 5.316406 C 361.8125 5.203125 362.097656 5.117188 362.394531 5.058594 C 362.691406 5 362.992188 4.96875 363.292969 4.96875 C 363.597656 4.96875 363.898438 5 364.191406 5.058594 C 364.488281 5.117188 364.777344 5.203125 365.058594 5.316406 C 365.335938 5.433594 365.605469 5.574219 365.855469 5.742188 C 366.109375 5.90625 366.339844 6.097656 366.554688 6.3125 C 367 6.738281 367.335938 7.234375 367.570312 7.800781 C 367.804688 8.367188 367.914062 8.960938 367.902344 9.574219 C 367.90625 9.875 367.875 10.175781 367.816406 10.472656 C 367.757812 10.769531 367.671875 11.058594 367.558594 11.339844 C 367.441406 11.617188 367.300781 11.882812 367.132812 12.136719 C 366.964844 12.386719 366.773438 12.621094 366.558594 12.832031 C 366.34375 13.046875 366.109375 13.238281 365.859375 13.40625 C 365.605469 13.574219 365.339844 13.714844 365.058594 13.832031 C 364.78125 13.945312 364.492188 14.03125 364.195312 14.089844 C 363.898438 14.148438 363.597656 14.175781 363.292969 14.175781 Z M 359.097656 47.480469 L 359.097656 17.121094 L 367.5 17.121094 L 367.5 47.480469 Z M 359.097656 47.480469 " fill-opacity="1" fill-rule="nonzero"/><g clip-path="url(#fe95917db1)"><path fill="#000000" d="M 374.273438 47.480469 L 374.273438 4.976562 L 382.675781 4.976562 L 382.675781 28.003906 L 382.875 28.003906 L 394.816406 17.121094 L 404.832031 17.121094 L 391.933594 28.761719 L 405.796875 47.480469 L 395.980469 47.480469 L 386.011719 33.871094 L 382.675781 36.605469 L 382.675781 47.480469 Z M 374.273438 47.480469 " fill-opacity="1" fill-rule="nonzero"/></g></svg>