<svg xmlns="http://www.w3.org/2000/svg" xmlns:xlink="http://www.w3.org/1999/xlink" width="800" zoomAndPan="magnify" viewBox="0 0 600 299.999988" height="400" preserveAspectRatio="xMidYMid meet" version="1.0"><path fill="#000000" d="M 55.378906 141.136719 C 45.378906 141.136719 36.695312 139.078125 29.324219 134.96875 C 25.667969 132.960938 22.367188 130.476562 19.421875 127.523438 C 16.476562 124.570312 14 121.261719 12 117.601562 C 7.84375 110.136719 5.765625 101.332031 5.765625 91.191406 C 5.765625 81.050781 7.84375 72.210938 12 64.664062 C 14 61.011719 16.472656 57.710938 19.417969 54.769531 C 22.367188 51.824219 25.667969 49.355469 29.324219 47.363281 C 36.714844 43.289062 45.398438 41.25 55.378906 41.25 C 65.359375 41.25 74.082031 43.265625 81.546875 47.300781 C 85.199219 49.277344 88.496094 51.734375 91.429688 54.667969 C 94.367188 57.605469 96.824219 60.898438 98.796875 64.550781 C 102.933594 72.015625 105 80.898438 105 91.191406 C 105 101.332031 102.921875 110.15625 98.765625 117.660156 C 96.769531 121.324219 94.296875 124.628906 91.347656 127.582031 C 88.398438 130.53125 85.089844 133.003906 81.425781 135 C 74.042969 139.09375 65.359375 141.140625 55.378906 141.136719 Z M 55.378906 123.414062 C 64.636719 123.414062 71.820312 120.496094 76.933594 114.667969 C 82.050781 108.835938 84.605469 101.011719 84.601562 91.191406 C 84.601562 81.292969 82.066406 73.449219 76.996094 67.65625 C 71.925781 61.867188 64.71875 58.976562 55.378906 58.980469 C 46.109375 58.980469 38.921875 61.871094 33.816406 67.65625 C 28.710938 73.441406 26.15625 81.289062 26.152344 91.191406 C 26.152344 101.015625 28.707031 108.84375 33.816406 114.667969 C 38.925781 120.492188 46.113281 123.40625 55.378906 123.414062 Z M 55.378906 123.414062 " fill-opacity="1" fill-rule="nonzero"/><path fill="#000000" d="M 123.523438 139.703125 L 123.523438 87.480469 L 113.699219 87.480469 L 113.699219 67.835938 L 133.824219 67.835938 L 133.824219 79.574219 L 138.855469 79.574219 C 141.558594 75.480469 145.074219 72.265625 149.390625 69.9375 C 153.621094 67.65625 158.890625 66.519531 165.203125 66.523438 C 175.203125 66.523438 182.925781 69.257812 188.378906 74.722656 C 193.828125 80.1875 196.5625 87.515625 196.582031 96.703125 L 196.582031 139.703125 L 176.699219 139.703125 L 176.699219 100.417969 C 176.699219 95.148438 175.28125 91.148438 172.449219 88.417969 C 169.613281 85.6875 165.480469 84.308594 160.050781 84.285156 C 154.621094 84.285156 150.488281 85.664062 147.660156 88.417969 C 144.828125 91.171875 143.414062 95.171875 143.40625 100.417969 L 143.40625 139.703125 Z M 123.523438 139.703125 " fill-opacity="1" fill-rule="nonzero"/><path fill="#000000" d="M 242.25 141.136719 C 234.898438 141.136719 228.648438 139.578125 223.5 136.46875 C 220.9375 134.921875 218.660156 133.03125 216.667969 130.796875 C 214.675781 128.558594 213.0625 126.078125 211.824219 123.351562 C 209.191406 117.722656 207.875 111.195312 207.871094 103.769531 C 207.871094 96.269531 209.148438 89.703125 211.703125 84.066406 C 212.871094 81.378906 214.410156 78.921875 216.320312 76.695312 C 218.226562 74.472656 220.421875 72.574219 222.898438 71.011719 C 227.808594 67.941406 233.699219 66.40625 240.5625 66.40625 C 245.835938 66.40625 250.371094 67.382812 254.160156 69.335938 C 256 70.265625 257.671875 71.4375 259.171875 72.855469 C 260.671875 74.273438 261.933594 75.875 262.964844 77.664062 L 263.445312 77.664062 L 263.445312 39.097656 L 283.320312 39.097656 L 283.320312 120.097656 L 293.144531 120.097656 L 293.144531 139.738281 L 273 139.738281 L 273 127.964844 L 267.96875 127.964844 C 266.722656 130.007812 265.234375 131.851562 263.496094 133.5 C 261.761719 135.144531 259.839844 136.53125 257.730469 137.664062 C 253.449219 139.976562 248.289062 141.136719 242.25 141.136719 Z M 245.960938 123.886719 C 251.308594 123.886719 255.558594 122.386719 258.710938 119.386719 C 261.867188 116.386719 263.445312 112.253906 263.445312 106.988281 L 263.445312 100.523438 C 263.445312 95.246094 261.867188 91.113281 258.710938 88.125 C 255.558594 85.136719 251.308594 83.636719 245.960938 83.625 C 239.898438 83.625 235.347656 85.421875 232.3125 89.015625 C 229.277344 92.613281 227.761719 97.523438 227.761719 103.746094 C 227.761719 109.972656 229.277344 114.882812 232.3125 118.476562 C 235.347656 122.074219 239.886719 123.878906 245.925781 123.890625 Z M 245.960938 123.886719 " fill-opacity="1" fill-rule="nonzero"/><path fill="#000000" d="M 321.734375 139.703125 L 298.5 67.835938 L 318.863281 67.835938 L 333.234375 114.789062 L 333.832031 114.789062 L 350.601562 67.835938 L 369.285156 67.835938 L 386.054688 114.789062 L 386.648438 114.789062 L 401.023438 67.835938 L 421.148438 67.835938 L 398.03125 139.703125 L 376.828125 139.703125 L 360.058594 94.183594 L 359.578125 94.183594 L 342.9375 139.703125 Z M 321.734375 139.703125 " fill-opacity="1" fill-rule="nonzero"/><path fill="#000000" d="M 452.046875 141 C 443.582031 141 436.953125 138.945312 432.164062 134.835938 C 427.375 130.726562 424.980469 125.316406 424.980469 118.605469 C 424.980469 111.5 427.453125 106.03125 432.40625 102.195312 C 437.355469 98.359375 444.46875 96.449219 453.75 96.464844 L 474.351562 96.464844 L 474.351562 93.75 C 474.351562 86.003906 469.71875 82.132812 460.453125 82.132812 C 452.394531 82.132812 447.523438 84.925781 445.84375 90.511719 L 426.050781 90.511719 C 427.652344 82.605469 431.363281 76.617188 437.191406 72.546875 C 443.015625 68.476562 450.765625 66.441406 460.441406 66.441406 C 471.140625 66.441406 479.304688 68.835938 484.933594 73.628906 C 490.566406 78.417969 493.378906 85.402344 493.378906 94.582031 L 493.378906 120.082031 L 502.71875 120.082031 L 502.71875 139.726562 L 482.585938 139.726562 L 482.585938 127.964844 L 477.554688 127.964844 C 476.367188 129.992188 474.929688 131.824219 473.242188 133.460938 C 471.554688 135.09375 469.679688 136.476562 467.617188 137.601562 C 463.460938 139.867188 458.273438 141 452.046875 141 Z M 455.046875 125.910156 C 458.515625 125.988281 461.835938 125.316406 465 123.890625 C 467.742188 122.660156 470.015625 120.839844 471.824219 118.441406 C 472.65625 117.324219 473.289062 116.105469 473.722656 114.785156 C 474.152344 113.460938 474.359375 112.105469 474.34375 110.714844 L 474.34375 109.636719 L 454.679688 109.636719 C 447.496094 109.636719 443.902344 112.308594 443.902344 117.660156 C 443.875 118.253906 443.921875 118.84375 444.042969 119.425781 C 444.167969 120.007812 444.359375 120.566406 444.621094 121.101562 C 444.882812 121.632812 445.207031 122.128906 445.59375 122.578125 C 445.980469 123.03125 446.414062 123.429688 446.902344 123.773438 C 448.890625 125.207031 451.605469 125.925781 455.039062 125.925781 Z M 455.046875 125.910156 " fill-opacity="1" fill-rule="nonzero"/><path fill="#000000" d="M 517.679688 139.703125 L 517.679688 87.480469 L 507.855469 87.480469 L 507.855469 67.835938 L 528 67.835938 L 528 81.976562 L 533.03125 81.976562 C 533.851562 79.628906 535.042969 77.492188 536.605469 75.5625 C 538.167969 73.628906 540.007812 72.015625 542.128906 70.726562 C 544.25 69.46875 546.5 68.523438 548.878906 67.886719 C 551.261719 67.25 553.683594 66.945312 556.148438 66.976562 L 562.253906 66.976562 L 562.253906 84.226562 L 555.308594 84.226562 C 549.078125 84.226562 544.503906 85.976562 541.589844 89.476562 C 538.675781 92.976562 537.21875 97.605469 537.21875 103.363281 L 537.21875 139.65625 Z M 517.679688 139.703125 " fill-opacity="1" fill-rule="nonzero"/><path fill="#000000" d="M 583.304688 60.75 C 582.589844 60.753906 581.878906 60.6875 581.175781 60.550781 C 580.472656 60.417969 579.792969 60.210938 579.128906 59.941406 C 578.46875 59.667969 577.835938 59.335938 577.242188 58.9375 C 576.644531 58.542969 576.09375 58.089844 575.585938 57.585938 C 575.082031 57.082031 574.628906 56.53125 574.230469 55.933594 C 573.832031 55.339844 573.5 54.710938 573.226562 54.050781 C 572.953125 53.386719 572.746094 52.703125 572.609375 52.003906 C 572.472656 51.300781 572.40625 50.589844 572.40625 49.875 C 572.40625 49.429688 572.433594 48.984375 572.488281 48.539062 C 572.542969 48.09375 572.625 47.65625 572.734375 47.222656 C 572.839844 46.789062 572.976562 46.363281 573.136719 45.945312 C 573.296875 45.527344 573.484375 45.121094 573.691406 44.730469 C 573.902344 44.335938 574.136719 43.953125 574.394531 43.589844 C 574.652344 43.222656 574.929688 42.875 575.230469 42.542969 C 575.53125 42.210938 575.851562 41.898438 576.191406 41.609375 C 576.527344 41.316406 576.882812 41.046875 577.253906 40.796875 C 577.625 40.550781 578.011719 40.324219 578.410156 40.125 C 578.8125 39.921875 579.222656 39.746094 579.640625 39.597656 C 580.0625 39.445312 580.492188 39.320312 580.929688 39.222656 C 581.363281 39.125 581.804688 39.054688 582.25 39.011719 C 582.695312 38.96875 583.140625 38.953125 583.589844 38.964844 C 584.035156 38.976562 584.480469 39.015625 584.921875 39.078125 C 585.363281 39.144531 585.800781 39.238281 586.230469 39.359375 C 586.660156 39.476562 587.082031 39.625 587.496094 39.796875 C 587.910156 39.964844 588.308594 40.164062 588.699219 40.382812 C 589.085938 40.605469 589.460938 40.847656 589.820312 41.113281 C 590.179688 41.382812 590.519531 41.667969 590.84375 41.980469 C 591.167969 42.289062 591.46875 42.613281 591.753906 42.960938 C 592.035156 43.308594 592.296875 43.667969 592.535156 44.046875 C 592.773438 44.425781 592.988281 44.816406 593.179688 45.222656 C 593.371094 45.625 593.535156 46.039062 593.671875 46.464844 C 593.8125 46.890625 593.925781 47.320312 594.011719 47.761719 C 594.097656 48.199219 594.15625 48.640625 594.191406 49.085938 C 594.222656 49.53125 594.226562 49.980469 594.203125 50.425781 C 594.179688 50.871094 594.128906 51.316406 594.050781 51.757812 C 593.976562 52.195312 593.871094 52.628906 593.738281 53.058594 C 593.609375 53.484375 593.453125 53.902344 593.269531 54.3125 C 593.085938 54.71875 592.882812 55.113281 592.648438 55.496094 C 592.417969 55.878906 592.164062 56.25 591.890625 56.601562 C 591.613281 56.953125 591.316406 57.285156 591 57.601562 C 589.988281 58.632812 588.816406 59.421875 587.476562 59.96875 C 586.140625 60.515625 584.75 60.777344 583.304688 60.75 Z M 573.367188 139.703125 L 573.367188 67.835938 L 593.25 67.835938 L 593.25 139.703125 Z M 573.367188 139.703125 " fill-opacity="1" fill-rule="nonzero"/><path fill="#000000" d="M 55.378906 261 C 45.378906 261 36.695312 258.945312 29.324219 254.835938 C 25.671875 252.828125 22.371094 250.347656 19.425781 247.398438 C 16.476562 244.449219 14.003906 241.144531 12 237.488281 C 7.84375 230.027344 5.765625 221.226562 5.765625 211.078125 C 5.765625 200.933594 7.84375 192.09375 12 184.550781 C 13.996094 180.898438 16.46875 177.597656 19.417969 174.652344 C 22.363281 171.710938 25.667969 169.242188 29.324219 167.25 C 36.710938 163.175781 45.394531 161.136719 55.378906 161.136719 C 65.363281 161.136719 74.085938 163.15625 81.546875 167.191406 C 85.199219 169.164062 88.496094 171.621094 91.429688 174.554688 C 94.367188 177.492188 96.824219 180.789062 98.796875 184.441406 C 102.933594 191.90625 105 200.785156 105 211.078125 C 105 221.21875 102.921875 230.042969 98.765625 237.546875 C 96.777344 241.214844 94.3125 244.523438 91.367188 247.480469 C 88.425781 250.433594 85.125 252.914062 81.464844 254.917969 C 74.054688 258.972656 65.359375 261 55.378906 261 Z M 55.378906 243.277344 C 64.636719 243.277344 71.820312 240.363281 76.933594 234.53125 C 82.050781 228.703125 84.605469 220.878906 84.601562 211.058594 C 84.601562 201.15625 82.066406 193.3125 76.996094 187.523438 C 71.925781 181.734375 64.71875 178.847656 55.378906 178.867188 C 46.109375 178.867188 38.921875 181.761719 33.816406 187.546875 C 28.710938 193.328125 26.15625 201.175781 26.152344 211.078125 C 26.152344 220.90625 28.707031 228.730469 33.816406 234.554688 C 38.925781 240.378906 46.113281 243.296875 55.378906 243.300781 Z M 55.378906 243.277344 " fill-opacity="1" fill-rule="nonzero"/><path fill="#000000" d="M 164.601562 261 C 158.53125 261 153.363281 259.84375 149.09375 257.527344 C 146.984375 256.398438 145.0625 255.007812 143.324219 253.363281 C 141.589844 251.71875 140.097656 249.875 138.855469 247.828125 L 133.824219 247.828125 L 133.824219 259.566406 L 113.699219 259.566406 L 113.699219 239.949219 L 123.523438 239.949219 L 123.523438 159 L 143.40625 159 L 143.40625 197.550781 L 143.886719 197.550781 C 144.941406 195.773438 146.222656 194.179688 147.730469 192.761719 C 149.234375 191.347656 150.90625 190.167969 152.746094 189.226562 C 156.5 187.265625 161.011719 186.289062 166.28125 186.292969 C 173.226562 186.292969 179.136719 187.828125 184.003906 190.898438 C 186.46875 192.46875 188.652344 194.371094 190.550781 196.59375 C 192.445312 198.820312 193.976562 201.273438 195.140625 203.953125 C 197.703125 209.585938 198.980469 216.152344 198.976562 223.65625 C 198.976562 231.082031 197.65625 237.609375 195.023438 243.238281 C 193.789062 245.957031 192.183594 248.4375 190.203125 250.671875 C 188.222656 252.90625 185.957031 254.796875 183.40625 256.351562 C 178.300781 259.449219 172.03125 261 164.601562 261 Z M 160.890625 243.75 C 166.960938 243.75 171.511719 241.953125 174.546875 238.359375 C 177.582031 234.761719 179.097656 229.851562 179.09375 223.628906 C 179.09375 217.402344 177.578125 212.492188 174.546875 208.898438 C 171.515625 205.300781 166.964844 203.503906 160.890625 203.503906 C 155.539062 203.503906 151.289062 205.003906 148.140625 208.003906 C 144.988281 211.003906 143.414062 215.136719 143.414062 220.402344 L 143.414062 226.867188 C 143.414062 232.140625 144.988281 236.273438 148.140625 239.265625 C 151.289062 242.253906 155.539062 243.75 160.890625 243.75 Z M 160.890625 243.75 " fill-opacity="1" fill-rule="nonzero"/><path fill="#000000" d="M 221.128906 180.660156 C 220.714844 180.65625 220.304688 180.632812 219.890625 180.582031 C 219.480469 180.53125 219.074219 180.460938 218.671875 180.363281 C 218.269531 180.265625 217.871094 180.148438 217.484375 180.007812 C 217.09375 179.867188 216.714844 179.703125 216.34375 179.515625 C 215.972656 179.332031 215.613281 179.125 215.269531 178.898438 C 214.921875 178.675781 214.585938 178.429688 214.269531 178.164062 C 213.949219 177.898438 213.648438 177.617188 213.359375 177.320312 C 213.074219 177.019531 212.804688 176.707031 212.554688 176.375 C 212.304688 176.046875 212.074219 175.703125 211.863281 175.347656 C 211.652344 174.992188 211.460938 174.625 211.292969 174.246094 C 211.121094 173.867188 210.976562 173.480469 210.851562 173.085938 C 210.726562 172.691406 210.625 172.292969 210.542969 171.886719 C 210.464844 171.480469 210.410156 171.070312 210.378906 170.65625 C 210.347656 170.242188 210.335938 169.828125 210.351562 169.417969 C 210.367188 169.003906 210.40625 168.589844 210.46875 168.179688 C 210.53125 167.773438 210.617188 167.367188 210.726562 166.96875 C 210.835938 166.566406 210.964844 166.175781 211.121094 165.792969 C 211.273438 165.40625 211.449219 165.03125 211.644531 164.667969 C 211.839844 164.304688 212.058594 163.953125 212.292969 163.613281 C 212.53125 163.273438 212.785156 162.945312 213.0625 162.636719 C 213.335938 162.324219 213.625 162.03125 213.933594 161.753906 C 214.242188 161.476562 214.5625 161.21875 214.902344 160.980469 C 215.238281 160.738281 215.589844 160.519531 215.953125 160.320312 C 216.3125 160.121094 216.6875 159.941406 217.070312 159.78125 C 217.453125 159.625 217.84375 159.492188 218.242188 159.378906 C 218.640625 159.265625 219.046875 159.175781 219.453125 159.109375 C 219.863281 159.042969 220.273438 159 220.6875 158.980469 C 221.101562 158.960938 221.515625 158.96875 221.925781 158.996094 C 222.339844 159.023438 222.75 159.074219 223.160156 159.148438 C 223.566406 159.226562 223.96875 159.324219 224.363281 159.445312 C 224.757812 159.566406 225.148438 159.710938 225.527344 159.875 C 225.90625 160.039062 226.273438 160.226562 226.632812 160.433594 C 226.992188 160.644531 227.335938 160.871094 227.667969 161.117188 C 228 161.363281 228.316406 161.628906 228.621094 161.914062 C 228.921875 162.199219 229.207031 162.5 229.472656 162.8125 C 229.738281 163.128906 229.988281 163.460938 230.21875 163.804688 C 230.449219 164.152344 230.65625 164.507812 230.84375 164.875 C 231.035156 165.246094 231.199219 165.621094 231.347656 166.011719 C 231.492188 166.398438 231.613281 166.792969 231.714844 167.195312 C 231.8125 167.597656 231.890625 168.003906 231.945312 168.414062 C 231.996094 168.824219 232.027344 169.238281 232.035156 169.652344 C 232.039062 170.066406 232.023438 170.476562 231.980469 170.890625 C 231.941406 171.300781 231.875 171.710938 231.789062 172.117188 C 231.699219 172.519531 231.589844 172.917969 231.457031 173.308594 C 231.324219 173.703125 231.167969 174.085938 230.988281 174.460938 C 230.8125 174.835938 230.613281 175.195312 230.394531 175.546875 C 230.175781 175.898438 229.9375 176.238281 229.679688 176.5625 C 229.421875 176.886719 229.148438 177.195312 228.855469 177.488281 C 227.84375 178.527344 226.664062 179.324219 225.320312 179.875 C 223.980469 180.425781 222.582031 180.6875 221.128906 180.660156 Z M 211.191406 259.589844 L 211.191406 187.726562 L 231.074219 187.726562 L 231.074219 259.589844 Z M 211.191406 259.589844 " fill-opacity="1" fill-rule="nonzero"/><path fill="#000000" d="M 247.125 259.589844 L 247.125 158.984375 L 267 158.984375 L 267 213.480469 L 267.480469 213.480469 L 295.746094 187.726562 L 319.460938 187.726562 L 288.921875 215.273438 L 321.734375 259.589844 L 298.5 259.589844 L 274.90625 227.371094 L 267 233.835938 L 267 259.589844 Z M 247.125 259.589844 " fill-opacity="1" fill-rule="nonzero"/><path fill="#000000" d="M 361.980469 261 C 354.148438 261 347.34375 259.460938 341.558594 256.386719 C 338.726562 254.921875 336.160156 253.082031 333.863281 250.875 C 331.566406 248.664062 329.632812 246.171875 328.058594 243.398438 C 324.863281 237.808594 323.265625 231.179688 323.265625 223.515625 C 323.265625 215.929688 324.84375 209.34375 327.996094 203.753906 C 329.558594 200.976562 331.488281 198.484375 333.785156 196.28125 C 336.085938 194.078125 338.65625 192.253906 341.496094 190.816406 C 347.328125 187.785156 354.195312 186.269531 362.101562 186.269531 C 369.925781 186.269531 376.710938 187.785156 382.460938 190.816406 C 385.269531 192.269531 387.800781 194.097656 390.066406 196.300781 C 392.328125 198.503906 394.226562 200.988281 395.753906 203.753906 C 398.867188 209.34375 400.425781 215.96875 400.425781 223.636719 C 400.425781 231.21875 398.867188 237.828125 395.753906 243.457031 C 394.230469 246.25 392.332031 248.757812 390.058594 250.980469 C 387.78125 253.203125 385.230469 255.042969 382.402344 256.5 C 376.613281 259.5 369.804688 261 361.980469 261 Z M 361.980469 243.75 C 367.980469 243.75 372.570312 241.933594 375.75 238.296875 C 378.929688 234.664062 380.527344 229.734375 380.542969 223.507812 C 380.542969 217.28125 378.945312 212.390625 375.75 208.835938 C 372.554688 205.28125 367.964844 203.503906 361.980469 203.503906 C 355.914062 203.503906 351.265625 205.28125 348.03125 208.835938 C 344.796875 212.390625 343.175781 217.28125 343.175781 223.507812 C 343.175781 229.734375 344.796875 234.664062 348.03125 238.296875 C 351.265625 241.933594 355.914062 243.75 361.980469 243.75 Z M 361.980469 243.75 " fill-opacity="1" fill-rule="nonzero"/></svg>