<svg xmlns="http://www.w3.org/2000/svg" xmlns:xlink="http://www.w3.org/1999/xlink" width="1200" zoomAndPan="magnify" viewBox="0 0 900 119.999999" height="160" preserveAspectRatio="xMidYMid meet" version="1.0"><path fill="#000000" d="M 45.210938 104.285156 C 36.550781 104.285156 29.007812 102.503906 22.589844 98.9375 C 19.421875 97.191406 16.558594 95.039062 14.003906 92.476562 C 11.449219 89.917969 9.304688 87.050781 7.570312 83.878906 C 3.960938 77.429688 2.15625 69.800781 2.15625 60.988281 C 2.15625 52.175781 3.960938 44.507812 7.570312 37.988281 C 9.300781 34.820312 11.445312 31.960938 14 29.410156 C 16.554688 26.855469 19.417969 24.714844 22.589844 22.984375 C 28.992188 19.453125 36.535156 17.691406 45.210938 17.691406 C 53.886719 17.691406 61.460938 19.433594 67.933594 22.921875 C 71.105469 24.636719 73.964844 26.765625 76.511719 29.3125 C 79.0625 31.855469 81.195312 34.710938 82.910156 37.875 C 86.472656 44.355469 88.257812 52.058594 88.261719 60.980469 C 88.261719 69.773438 86.460938 77.421875 82.855469 83.925781 C 81.128906 87.105469 78.988281 89.972656 76.429688 92.535156 C 73.875 95.097656 71.007812 97.246094 67.828125 98.984375 C 61.410156 102.515625 53.871094 104.285156 45.210938 104.285156 Z M 45.210938 88.917969 C 53.25 88.917969 59.492188 86.390625 63.929688 81.339844 C 68.367188 76.285156 70.585938 69.5 70.585938 60.988281 C 70.585938 52.402344 68.382812 45.601562 63.980469 40.582031 C 59.578125 35.5625 53.320312 33.0625 45.210938 33.085938 C 37.167969 33.085938 30.929688 35.578125 26.492188 40.5625 C 22.054688 45.546875 19.835938 52.355469 19.835938 60.988281 C 19.835938 69.503906 22.054688 76.289062 26.492188 81.339844 C 30.929688 86.386719 37.167969 88.914062 45.210938 88.917969 Z M 45.210938 88.917969 " fill-opacity="1" fill-rule="nonzero"/><path fill="#000000" d="M 104.375 103.042969 L 104.375 57.757812 L 95.839844 57.757812 L 95.839844 40.742188 L 113.308594 40.742188 L 113.308594 50.914062 L 117.671875 50.914062 C 120.027344 47.359375 123.082031 44.574219 126.839844 42.558594 C 130.511719 40.5625 135.085938 39.566406 140.5625 39.566406 C 149.234375 39.566406 155.941406 41.9375 160.6875 46.675781 C 165.4375 51.417969 167.808594 57.769531 167.808594 65.734375 L 167.808594 103.011719 L 150.550781 103.011719 L 150.550781 68.972656 C 150.550781 64.402344 149.320312 60.914062 146.859375 58.503906 C 144.398438 56.097656 140.808594 54.902344 136.09375 54.914062 C 131.378906 54.914062 127.792969 56.113281 125.332031 58.503906 C 122.871094 60.898438 121.640625 64.386719 121.640625 68.972656 L 121.640625 103.035156 Z M 104.375 103.042969 " fill-opacity="1" fill-rule="nonzero"/><path fill="#000000" d="M 207.402344 104.285156 C 201.023438 104.285156 195.601562 102.9375 191.132812 100.238281 C 188.90625 98.898438 186.929688 97.261719 185.199219 95.320312 C 183.472656 93.382812 182.070312 91.230469 180.996094 88.867188 C 178.703125 83.984375 177.5625 78.324219 177.566406 71.886719 C 177.570312 65.453125 178.679688 59.761719 180.890625 54.8125 C 181.90625 52.480469 183.242188 50.347656 184.902344 48.417969 C 186.5625 46.488281 188.46875 44.847656 190.625 43.492188 C 194.890625 40.820312 200.007812 39.488281 205.964844 39.492188 C 210.109375 39.390625 214.046875 40.242188 217.773438 42.054688 C 219.375 42.859375 220.824219 43.878906 222.125 45.109375 C 223.429688 46.335938 224.527344 47.726562 225.417969 49.277344 L 225.839844 49.277344 L 225.839844 15.820312 L 243.097656 15.820312 L 243.097656 86.011719 L 251.625 86.011719 L 251.625 103.042969 L 234.15625 103.042969 L 234.15625 92.898438 L 229.785156 92.898438 C 227.574219 96.496094 224.609375 99.289062 220.882812 101.277344 C 217.1875 103.28125 212.695312 104.285156 207.402344 104.285156 Z M 210.628906 89.332031 C 215.273438 89.332031 218.964844 88.035156 221.703125 85.441406 C 224.445312 82.851562 225.816406 79.265625 225.816406 74.691406 L 225.816406 69.085938 C 225.816406 64.519531 224.445312 60.9375 221.703125 58.339844 C 218.964844 55.742188 215.273438 54.445312 210.628906 54.445312 C 205.359375 54.445312 201.410156 56.003906 198.777344 59.117188 C 196.148438 62.234375 194.835938 66.488281 194.847656 71.886719 C 194.847656 77.285156 196.164062 81.542969 198.800781 84.65625 C 201.4375 87.773438 205.386719 89.332031 210.652344 89.332031 Z M 210.628906 89.332031 " fill-opacity="1" fill-rule="nonzero"/><path fill="#000000" d="M 276.476562 103.042969 L 256.304688 40.742188 L 273.984375 40.742188 L 286.457031 81.441406 L 286.980469 81.441406 L 301.535156 40.742188 L 317.761719 40.742188 L 332.316406 81.441406 L 332.835938 81.441406 L 345.316406 40.742188 L 362.785156 40.742188 L 342.71875 103.042969 L 324.304688 103.042969 L 309.75 63.582031 L 309.339844 63.582031 L 294.878906 103.042969 Z M 276.476562 103.042969 " fill-opacity="1" fill-rule="nonzero"/><path fill="#000000" d="M 389.613281 104.179688 C 382.265625 104.179688 376.511719 102.398438 372.351562 98.832031 C 368.195312 95.269531 366.125 90.578125 366.140625 84.761719 C 366.140625 78.601562 368.289062 73.867188 372.585938 70.558594 C 376.882812 67.246094 383.054688 65.585938 391.09375 65.570312 L 408.976562 65.570312 L 408.976562 63.171875 C 408.976562 56.457031 404.953125 53.097656 396.914062 53.089844 C 389.925781 53.089844 385.695312 55.515625 384.230469 60.367188 L 367.050781 60.367188 C 368.441406 53.507812 371.660156 48.3125 376.71875 44.785156 C 381.773438 41.257812 388.5 39.492188 396.890625 39.492188 C 406.179688 39.492188 413.269531 41.566406 418.160156 45.71875 C 423.054688 49.871094 425.496094 55.929688 425.492188 63.894531 L 425.492188 86.011719 L 433.601562 86.011719 L 433.601562 103.042969 L 416.132812 103.042969 L 416.132812 92.898438 L 411.761719 92.898438 C 410.726562 94.65625 409.480469 96.242188 408.015625 97.660156 C 406.550781 99.082031 404.925781 100.277344 403.132812 101.253906 C 399.527344 103.203125 395.019531 104.179688 389.613281 104.179688 Z M 392.210938 91.09375 C 395.222656 91.160156 398.097656 90.570312 400.84375 89.332031 C 403.222656 88.261719 405.203125 86.6875 406.773438 84.605469 C 407.496094 83.632812 408.046875 82.574219 408.417969 81.421875 C 408.792969 80.269531 408.96875 79.085938 408.953125 77.875 L 408.953125 76.941406 L 391.902344 76.941406 C 385.667969 76.941406 382.550781 79.257812 382.542969 83.894531 C 382.496094 84.941406 382.703125 85.9375 383.164062 86.878906 C 383.625 87.816406 384.285156 88.589844 385.140625 89.195312 C 386.875 90.460938 389.230469 91.09375 392.210938 91.09375 Z M 392.210938 91.09375 " fill-opacity="1" fill-rule="nonzero"/><path fill="#000000" d="M 446.597656 103.042969 L 446.597656 57.757812 L 438.070312 57.757812 L 438.070312 40.742188 L 455.539062 40.742188 L 455.539062 52.996094 L 459.914062 52.996094 C 460.625 50.960938 461.65625 49.105469 463.011719 47.429688 C 464.371094 45.75 465.96875 44.351562 467.8125 43.230469 C 469.648438 42.148438 471.597656 41.335938 473.660156 40.789062 C 475.71875 40.246094 477.816406 39.984375 479.949219 40.015625 L 485.25 40.015625 L 485.25 54.96875 L 479.261719 54.96875 C 473.855469 54.96875 469.886719 56.492188 467.355469 59.542969 C 464.824219 62.59375 463.554688 66.605469 463.550781 71.582031 L 463.550781 103.042969 Z M 446.597656 103.042969 " fill-opacity="1" fill-rule="nonzero"/><path fill="#000000" d="M 503.578125 34.578125 C 502.957031 34.582031 502.339844 34.527344 501.730469 34.40625 C 501.121094 34.289062 500.527344 34.109375 499.953125 33.875 C 499.375 33.640625 498.832031 33.347656 498.3125 33.003906 C 497.796875 32.660156 497.316406 32.269531 496.875 31.828125 C 496.4375 31.390625 496.042969 30.914062 495.699219 30.394531 C 495.355469 29.878906 495.066406 29.332031 494.828125 28.757812 C 494.59375 28.183594 494.414062 27.59375 494.296875 26.984375 C 494.175781 26.371094 494.117188 25.757812 494.121094 25.136719 C 494.105469 24.503906 494.148438 23.878906 494.257812 23.253906 C 494.367188 22.632812 494.535156 22.027344 494.765625 21.4375 C 494.996094 20.851562 495.28125 20.289062 495.621094 19.757812 C 495.964844 19.226562 496.355469 18.734375 496.796875 18.28125 C 497.238281 17.832031 497.71875 17.425781 498.242188 17.070312 C 498.765625 16.710938 499.316406 16.410156 499.898438 16.164062 C 500.484375 15.917969 501.085938 15.734375 501.703125 15.609375 C 502.324219 15.484375 502.949219 15.421875 503.582031 15.421875 C 504.214844 15.421875 504.84375 15.484375 505.460938 15.609375 C 506.082031 15.734375 506.683594 15.917969 507.265625 16.164062 C 507.847656 16.410156 508.402344 16.710938 508.921875 17.070312 C 509.445312 17.425781 509.925781 17.832031 510.367188 18.28125 C 510.808594 18.734375 511.203125 19.226562 511.542969 19.757812 C 511.886719 20.289062 512.171875 20.851562 512.402344 21.4375 C 512.632812 22.027344 512.800781 22.632812 512.90625 23.253906 C 513.015625 23.878906 513.0625 24.503906 513.042969 25.136719 C 513.046875 25.757812 512.988281 26.375 512.871094 26.984375 C 512.75 27.59375 512.574219 28.1875 512.335938 28.761719 C 512.101562 29.335938 511.808594 29.878906 511.464844 30.398438 C 511.121094 30.914062 510.726562 31.394531 510.285156 31.832031 C 509.847656 32.269531 509.367188 32.664062 508.847656 33.007812 C 508.332031 33.351562 507.785156 33.640625 507.207031 33.878906 C 506.632812 34.113281 506.039062 34.289062 505.429688 34.40625 C 504.816406 34.527344 504.203125 34.582031 503.578125 34.578125 Z M 494.921875 103.042969 L 494.921875 40.742188 L 512.183594 40.742188 L 512.183594 103.042969 Z M 494.921875 103.042969 " fill-opacity="1" fill-rule="nonzero"/><path fill="#000000" d="M 596.753906 104.285156 C 588.089844 104.285156 580.546875 102.503906 574.132812 98.9375 C 570.964844 97.191406 568.101562 95.039062 565.550781 92.476562 C 562.996094 89.917969 560.851562 87.050781 559.113281 83.878906 C 555.503906 77.402344 553.699219 69.769531 553.699219 60.988281 C 553.699219 52.203125 555.503906 44.539062 559.113281 37.988281 C 560.847656 34.820312 562.988281 31.960938 565.542969 29.410156 C 568.097656 26.855469 570.960938 24.714844 574.132812 22.984375 C 580.554688 19.453125 588.09375 17.691406 596.753906 17.691406 C 605.414062 17.691406 612.988281 19.433594 619.476562 22.921875 C 622.648438 24.636719 625.507812 26.765625 628.054688 29.3125 C 630.605469 31.855469 632.738281 34.710938 634.453125 37.875 C 638.015625 44.355469 639.800781 52.058594 639.808594 60.980469 C 639.808594 69.773438 638.003906 77.421875 634.402344 83.925781 C 632.671875 87.105469 630.53125 89.972656 627.972656 92.535156 C 625.417969 95.097656 622.550781 97.246094 619.375 98.984375 C 612.960938 102.515625 605.417969 104.285156 596.753906 104.285156 Z M 596.753906 88.917969 C 604.796875 88.917969 611.035156 86.390625 615.472656 81.339844 C 619.910156 76.285156 622.128906 69.5 622.128906 60.988281 C 622.128906 52.402344 619.925781 45.601562 615.523438 40.582031 C 611.121094 35.5625 604.863281 33.0625 596.753906 33.085938 C 588.710938 33.085938 582.472656 35.578125 578.035156 40.5625 C 573.597656 45.546875 571.378906 52.347656 571.378906 60.964844 C 571.378906 69.484375 573.597656 76.265625 578.035156 81.316406 C 582.472656 86.363281 588.710938 88.898438 596.753906 88.917969 Z M 596.753906 88.917969 " fill-opacity="1" fill-rule="nonzero"/><path fill="#000000" d="M 691.589844 104.285156 C 686.320312 104.285156 681.828125 103.285156 678.113281 101.292969 C 674.394531 99.296875 671.433594 96.496094 669.234375 92.898438 L 664.890625 92.898438 L 664.890625 103.074219 L 647.398438 103.074219 L 647.398438 86.011719 L 655.90625 86.011719 L 655.90625 15.820312 L 673.171875 15.820312 L 673.171875 49.257812 L 673.582031 49.257812 C 674.503906 47.71875 675.621094 46.335938 676.929688 45.113281 C 678.242188 43.890625 679.695312 42.871094 681.296875 42.054688 C 685.003906 40.25 688.917969 39.402344 693.042969 39.515625 C 699.078125 39.515625 704.210938 40.847656 708.4375 43.515625 C 710.578125 44.878906 712.472656 46.523438 714.117188 48.453125 C 715.765625 50.378906 717.09375 52.507812 718.105469 54.832031 C 720.324219 59.707031 721.433594 65.402344 721.433594 71.910156 C 721.558594 77.824219 720.414062 83.484375 718.007812 88.890625 C 716.933594 91.25 715.539062 93.398438 713.816406 95.335938 C 712.097656 97.273438 710.128906 98.914062 707.914062 100.261719 C 703.480469 102.949219 698.039062 104.289062 691.589844 104.285156 Z M 688.363281 89.332031 C 693.632812 89.332031 697.585938 87.773438 700.222656 84.65625 C 702.859375 81.542969 704.175781 77.285156 704.167969 71.886719 C 704.167969 66.488281 702.855469 62.234375 700.222656 59.117188 C 697.59375 56.003906 693.640625 54.445312 688.363281 54.445312 C 683.722656 54.445312 680.03125 55.742188 677.289062 58.339844 C 674.550781 60.9375 673.179688 64.519531 673.1875 69.085938 L 673.1875 74.691406 C 673.1875 79.257812 674.554688 82.839844 677.289062 85.441406 C 680.023438 88.042969 683.714844 89.339844 688.363281 89.332031 Z M 688.363281 89.332031 " fill-opacity="1" fill-rule="nonzero"/><path fill="#000000" d="M 740.671875 34.578125 C 740.046875 34.582031 739.433594 34.527344 738.820312 34.40625 C 738.210938 34.289062 737.617188 34.113281 737.042969 33.878906 C 736.464844 33.640625 735.917969 33.351562 735.402344 33.007812 C 734.882812 32.664062 734.402344 32.269531 733.964844 31.832031 C 733.523438 31.394531 733.132812 30.914062 732.785156 30.398438 C 732.441406 29.878906 732.148438 29.335938 731.914062 28.761719 C 731.675781 28.1875 731.5 27.59375 731.378906 26.984375 C 731.261719 26.375 731.203125 25.757812 731.207031 25.136719 C 731.207031 24.515625 731.265625 23.902344 731.386719 23.292969 C 731.511719 22.683594 731.6875 22.09375 731.925781 21.519531 C 732.164062 20.945312 732.457031 20.402344 732.800781 19.886719 C 733.148438 19.371094 733.539062 18.894531 733.980469 18.453125 C 734.417969 18.015625 734.894531 17.625 735.414062 17.277344 C 735.929688 16.933594 736.476562 16.644531 737.050781 16.40625 C 737.625 16.167969 738.214844 15.988281 738.824219 15.867188 C 739.433594 15.746094 740.050781 15.6875 740.671875 15.6875 C 741.292969 15.6875 741.90625 15.746094 742.515625 15.867188 C 743.125 15.988281 743.71875 16.167969 744.292969 16.40625 C 744.867188 16.644531 745.414062 16.933594 745.929688 17.277344 C 746.445312 17.625 746.921875 18.015625 747.363281 18.453125 C 747.800781 18.894531 748.195312 19.371094 748.539062 19.886719 C 748.886719 20.402344 749.175781 20.945312 749.414062 21.519531 C 749.652344 22.09375 749.832031 22.683594 749.953125 23.292969 C 750.074219 23.902344 750.136719 24.515625 750.136719 25.136719 C 750.136719 25.757812 750.082031 26.375 749.960938 26.984375 C 749.84375 27.59375 749.664062 28.1875 749.429688 28.761719 C 749.191406 29.335938 748.902344 29.878906 748.554688 30.398438 C 748.210938 30.914062 747.820312 31.394531 747.378906 31.832031 C 746.9375 32.269531 746.460938 32.664062 745.941406 33.007812 C 745.421875 33.351562 744.875 33.640625 744.300781 33.878906 C 743.726562 34.113281 743.132812 34.289062 742.519531 34.40625 C 741.910156 34.527344 741.292969 34.582031 740.671875 34.578125 Z M 732.039062 103.011719 L 732.039062 40.742188 L 749.304688 40.742188 L 749.304688 103.042969 Z M 732.039062 103.011719 " fill-opacity="1" fill-rule="nonzero"/><path fill="#000000" d="M 763.238281 103.042969 L 763.238281 15.820312 L 780.496094 15.820312 L 780.496094 63.066406 L 780.917969 63.066406 L 805.453125 40.742188 L 826.042969 40.742188 L 799.53125 64.621094 L 828.019531 103.042969 L 807.847656 103.042969 L 787.363281 75.109375 L 780.496094 80.71875 L 780.496094 103.042969 Z M 763.238281 103.042969 " fill-opacity="1" fill-rule="nonzero"/><path fill="#000000" d="M 862.957031 104.285156 C 856.167969 104.285156 850.261719 102.953125 845.234375 100.292969 C 842.78125 99.015625 840.558594 97.421875 838.566406 95.503906 C 836.574219 93.585938 834.894531 91.425781 833.53125 89.023438 C 830.761719 84.179688 829.375 78.433594 829.375 71.78125 C 829.375 65.207031 830.742188 59.5 833.476562 54.652344 C 834.832031 52.25 836.503906 50.089844 838.496094 48.179688 C 840.492188 46.269531 842.71875 44.691406 845.179688 43.4375 C 850.238281 40.808594 856.199219 39.492188 863.0625 39.492188 C 869.925781 39.492188 875.816406 40.808594 880.738281 43.4375 C 883.175781 44.695312 885.378906 46.28125 887.347656 48.191406 C 889.3125 50.101562 890.960938 52.253906 892.285156 54.652344 C 894.984375 59.5 896.339844 65.242188 896.34375 71.886719 C 896.347656 78.53125 894.996094 84.265625 892.285156 89.082031 C 890.960938 91.503906 889.3125 93.671875 887.335938 95.597656 C 885.359375 97.519531 883.140625 99.113281 880.6875 100.375 C 875.664062 102.984375 869.753906 104.289062 862.957031 104.285156 Z M 862.957031 89.332031 C 868.15625 89.332031 872.152344 87.753906 874.9375 84.605469 C 877.722656 81.457031 879.105469 77.179688 879.09375 71.78125 C 879.09375 66.386719 877.707031 62.148438 874.9375 59.074219 C 872.167969 55.996094 868.171875 54.457031 862.957031 54.453125 C 857.695312 54.453125 853.65625 55.992188 850.84375 59.074219 C 848.027344 62.152344 846.625 66.390625 846.632812 71.78125 C 846.632812 77.179688 848.035156 81.457031 850.84375 84.605469 C 853.648438 87.753906 857.6875 89.332031 862.957031 89.332031 Z M 862.957031 89.332031 " fill-opacity="1" fill-rule="nonzero"/></svg>