<svg xmlns="http://www.w3.org/2000/svg" xmlns:xlink="http://www.w3.org/1999/xlink" width="56" zoomAndPan="magnify" viewBox="0 0 42 42" height="56" preserveAspectRatio="xMidYMid meet" version="1.0"><path fill="#000000" d="M 32.914062 20.558594 C 32.914062 20.996094 32.890625 21.429688 32.839844 21.867188 C 32.792969 22.300781 32.71875 22.730469 32.625 23.15625 C 32.527344 23.582031 32.410156 24.003906 32.265625 24.417969 C 32.125 24.828125 31.960938 25.234375 31.773438 25.628906 C 31.585938 26.023438 31.378906 26.40625 31.148438 26.78125 C 30.917969 27.152344 30.671875 27.511719 30.402344 27.855469 C 30.132812 28.199219 29.84375 28.527344 29.539062 28.839844 C 29.234375 29.152344 28.914062 29.449219 28.574219 29.726562 C 28.238281 30.003906 27.886719 30.261719 27.519531 30.5 C 27.152344 30.738281 26.773438 30.957031 26.382812 31.152344 C 25.992188 31.347656 25.59375 31.523438 25.183594 31.675781 C 24.773438 31.828125 24.355469 31.957031 23.933594 32.0625 C 23.507812 32.167969 23.082031 32.253906 22.648438 32.3125 C 22.214844 32.371094 21.777344 32.40625 21.34375 32.414062 C 20.90625 32.425781 20.46875 32.414062 20.035156 32.375 C 19.597656 32.339844 19.164062 32.277344 18.738281 32.191406 C 18.308594 32.109375 17.886719 32 17.46875 31.867188 C 17.050781 31.734375 16.644531 31.582031 16.246094 31.40625 C 15.84375 31.226562 15.457031 31.027344 15.078125 30.808594 C 14.699219 30.589844 14.335938 30.351562 13.984375 30.089844 C 13.632812 29.828125 13.296875 29.550781 12.976562 29.253906 C 12.65625 28.957031 12.351562 28.640625 12.066406 28.3125 C 11.78125 27.980469 11.515625 27.636719 11.265625 27.273438 C 11.019531 26.914062 10.792969 26.542969 10.585938 26.15625 C 10.378906 25.773438 10.195312 25.375 10.03125 24.96875 C 9.871094 24.566406 9.730469 24.152344 9.613281 23.730469 C 9.496094 23.308594 9.402344 22.882812 9.332031 22.453125 C 9.261719 22.019531 9.214844 21.585938 9.195312 21.148438 C 9.171875 20.710938 9.175781 20.277344 9.199219 19.839844 C 9.226562 19.402344 9.277344 18.96875 9.351562 18.539062 C 9.425781 18.109375 9.523438 17.683594 9.644531 17.261719 C 9.765625 16.84375 9.910156 16.429688 10.074219 16.027344 L 5.8125 16.027344 C 5.628906 16.632812 5.484375 17.25 5.378906 17.875 C 5.269531 18.5 5.199219 19.128906 5.167969 19.761719 C 5.136719 20.394531 5.140625 21.027344 5.183594 21.660156 C 5.226562 22.289062 5.308594 22.917969 5.425781 23.539062 C 5.546875 24.164062 5.699219 24.777344 5.890625 25.378906 C 6.082031 25.984375 6.308594 26.574219 6.570312 27.152344 C 6.832031 27.730469 7.128906 28.289062 7.457031 28.828125 C 7.785156 29.371094 8.148438 29.890625 8.539062 30.390625 C 8.929688 30.886719 9.347656 31.363281 9.796875 31.808594 C 10.242188 32.257812 10.714844 32.679688 11.214844 33.070312 C 11.710938 33.464844 12.230469 33.824219 12.773438 34.152344 C 13.3125 34.484375 13.871094 34.78125 14.449219 35.042969 C 15.023438 35.308594 15.613281 35.535156 16.21875 35.726562 C 16.820312 35.921875 17.433594 36.078125 18.058594 36.195312 C 18.679688 36.316406 19.308594 36.398438 19.9375 36.441406 C 20.570312 36.484375 21.203125 36.492188 21.835938 36.460938 C 22.46875 36.429688 23.097656 36.363281 23.722656 36.253906 C 24.347656 36.148438 24.964844 36.003906 25.570312 35.824219 C 26.179688 35.644531 26.773438 35.429688 27.355469 35.179688 C 27.9375 34.929688 28.5 34.644531 29.050781 34.324219 C 29.597656 34.007812 30.125 33.65625 30.628906 33.277344 C 31.136719 32.894531 31.617188 32.484375 32.074219 32.042969 C 32.53125 31.605469 32.960938 31.140625 33.363281 30.652344 C 33.765625 30.160156 34.132812 29.648438 34.476562 29.113281 C 34.816406 28.578125 35.121094 28.027344 35.394531 27.453125 C 35.671875 26.882812 35.910156 26.296875 36.113281 25.699219 C 36.316406 25.097656 36.484375 24.488281 36.617188 23.867188 C 36.746094 23.25 36.839844 22.621094 36.898438 21.992188 C 36.953125 21.359375 36.972656 20.726562 36.953125 20.09375 C 36.933594 19.460938 36.878906 18.832031 36.785156 18.203125 C 36.691406 17.578125 36.558594 16.960938 36.390625 16.347656 C 36.222656 15.738281 36.019531 15.140625 35.777344 14.550781 C 35.539062 13.964844 35.265625 13.394531 34.957031 12.84375 C 34.648438 12.289062 34.308594 11.753906 33.9375 11.242188 C 33.566406 10.730469 33.164062 10.238281 32.734375 9.773438 C 32.304688 9.308594 31.847656 8.871094 31.363281 8.460938 C 30.882812 8.050781 30.375 7.667969 29.847656 7.320312 C 29.320312 6.96875 28.773438 6.652344 28.207031 6.367188 C 27.640625 6.082031 27.0625 5.832031 26.464844 5.613281 C 25.871094 5.398438 25.261719 5.21875 24.644531 5.078125 C 24.027344 4.933594 23.40625 4.828125 22.773438 4.761719 C 22.144531 4.691406 21.511719 4.660156 20.878906 4.667969 C 20.246094 4.675781 19.613281 4.71875 18.984375 4.800781 C 18.359375 4.882812 17.738281 5.003906 17.121094 5.160156 C 16.507812 5.316406 15.90625 5.507812 15.316406 5.738281 C 14.722656 5.96875 14.148438 6.230469 13.589844 6.527344 C 13.03125 6.824219 12.492188 7.152344 11.96875 7.515625 C 11.449219 7.878906 10.953125 8.269531 10.480469 8.691406 L 21.046875 8.691406 C 21.824219 8.691406 22.597656 8.765625 23.363281 8.917969 C 24.125 9.070312 24.867188 9.296875 25.585938 9.59375 C 26.308594 9.894531 26.992188 10.257812 27.640625 10.691406 C 28.289062 11.125 28.886719 11.617188 29.4375 12.167969 C 29.988281 12.71875 30.480469 13.316406 30.914062 13.964844 C 31.347656 14.613281 31.710938 15.296875 32.011719 16.015625 C 32.308594 16.738281 32.535156 17.480469 32.6875 18.242188 C 32.835938 19.007812 32.914062 19.777344 32.914062 20.558594 Z M 5.011719 12.863281 L 16.980469 12.863281 C 16.671875 13.027344 16.371094 13.207031 16.082031 13.40625 C 15.792969 13.609375 15.519531 13.824219 15.257812 14.058594 C 14.996094 14.292969 14.75 14.539062 14.515625 14.800781 C 14.285156 15.066406 14.070312 15.34375 13.871094 15.632812 C 13.671875 15.921875 13.492188 16.21875 13.328125 16.53125 C 13.164062 16.84375 13.023438 17.164062 12.898438 17.492188 C 12.777344 17.820312 12.671875 18.152344 12.589844 18.496094 C 12.503906 18.835938 12.441406 19.179688 12.402344 19.527344 C 12.359375 19.875 12.339844 20.226562 12.339844 20.578125 C 12.339844 20.929688 12.363281 21.277344 12.40625 21.625 C 12.449219 21.972656 12.511719 22.316406 12.597656 22.660156 C 12.679688 23 12.785156 23.332031 12.910156 23.660156 C 13.035156 23.988281 13.179688 24.308594 13.34375 24.617188 C 13.507812 24.929688 13.6875 25.230469 13.890625 25.515625 C 14.089844 25.804688 14.304688 26.082031 14.539062 26.34375 C 14.769531 26.605469 15.019531 26.851562 15.28125 27.085938 C 15.546875 27.316406 15.820312 27.53125 16.109375 27.730469 C 16.398438 27.929688 16.699219 28.109375 17.011719 28.273438 C 17.320312 28.4375 17.640625 28.578125 17.96875 28.703125 C 18.296875 28.828125 18.632812 28.929688 18.972656 29.015625 C 19.3125 29.097656 19.65625 29.160156 20.007812 29.203125 C 20.355469 29.246094 20.703125 29.265625 21.054688 29.265625 C 21.40625 29.265625 21.753906 29.242188 22.105469 29.199219 C 22.453125 29.15625 22.796875 29.09375 23.136719 29.011719 C 23.476562 28.925781 23.8125 28.820312 24.140625 28.695312 C 24.46875 28.570312 24.789062 28.425781 25.097656 28.265625 C 25.410156 28.101562 25.707031 27.917969 25.996094 27.71875 C 26.285156 27.519531 26.558594 27.304688 26.824219 27.070312 C 27.085938 26.839844 27.332031 26.589844 27.566406 26.328125 C 27.796875 26.0625 28.011719 25.789062 28.210938 25.5 C 28.410156 25.210938 28.59375 24.910156 28.753906 24.601562 C 28.917969 24.289062 29.0625 23.96875 29.1875 23.640625 C 29.308594 23.3125 29.414062 22.980469 29.496094 22.636719 C 29.582031 22.296875 29.644531 21.953125 29.6875 21.605469 C 29.730469 21.257812 29.75 20.90625 29.75 20.554688 C 29.75 20.207031 29.726562 19.855469 29.6875 19.507812 C 29.644531 19.160156 29.578125 18.816406 29.496094 18.472656 C 29.410156 18.132812 29.308594 17.800781 29.183594 17.472656 C 29.058594 17.144531 28.914062 16.824219 28.75 16.511719 C 28.589844 16.203125 28.40625 15.902344 28.207031 15.613281 C 28.007812 15.324219 27.792969 15.050781 27.558594 14.785156 C 27.328125 14.523438 27.078125 14.277344 26.816406 14.042969 C 26.554688 13.8125 26.277344 13.59375 25.988281 13.394531 C 25.699219 13.195312 25.402344 13.015625 25.089844 12.851562 C 24.777344 12.691406 24.460938 12.546875 24.132812 12.421875 C 23.804688 12.296875 23.46875 12.191406 23.128906 12.109375 C 22.789062 12.023438 22.445312 11.960938 22.09375 11.917969 C 21.746094 11.875 21.398438 11.855469 21.046875 11.855469 L 4.089844 11.855469 C 4.277344 11.488281 4.476562 11.132812 4.6875 10.777344 C 4.898438 10.425781 5.121094 10.082031 5.355469 9.742188 C 5.589844 9.40625 5.832031 9.074219 6.085938 8.753906 C 6.34375 8.429688 6.605469 8.117188 6.882812 7.8125 C 7.15625 7.507812 7.441406 7.210938 7.738281 6.925781 C 8.03125 6.636719 8.335938 6.359375 8.648438 6.09375 C 8.960938 5.828125 9.28125 5.570312 9.609375 5.324219 C 9.9375 5.078125 10.273438 4.84375 10.617188 4.617188 C 10.960938 4.394531 11.3125 4.183594 11.671875 3.980469 C 12.03125 3.777344 12.394531 3.589844 12.765625 3.410156 C 13.132812 3.234375 13.511719 3.066406 13.890625 2.914062 C 14.273438 2.761719 14.65625 2.621094 15.046875 2.492188 C 15.4375 2.363281 15.832031 2.246094 16.230469 2.144531 C 16.628906 2.039062 17.027344 1.949219 17.433594 1.875 C 17.835938 1.796875 18.242188 1.734375 18.648438 1.683594 C 19.054688 1.632812 19.464844 1.59375 19.875 1.570312 C 20.285156 1.546875 20.695312 1.535156 21.105469 1.539062 C 21.519531 1.539062 21.929688 1.554688 22.339844 1.585938 C 22.746094 1.613281 23.15625 1.65625 23.5625 1.710938 C 23.96875 1.769531 24.375 1.835938 24.777344 1.917969 C 25.179688 2 25.578125 2.09375 25.976562 2.203125 C 26.371094 2.3125 26.765625 2.429688 27.152344 2.566406 C 27.542969 2.699219 27.925781 2.84375 28.304688 3 C 28.683594 3.160156 29.058594 3.328125 29.425781 3.511719 C 29.792969 3.695312 30.15625 3.890625 30.511719 4.09375 C 30.867188 4.300781 31.214844 4.519531 31.558594 4.746094 C 31.898438 4.972656 32.234375 5.214844 32.558594 5.464844 C 32.882812 5.714844 33.203125 5.972656 33.511719 6.246094 C 33.820312 6.515625 34.121094 6.796875 34.410156 7.085938 C 34.703125 7.375 34.984375 7.675781 35.253906 7.984375 C 35.527344 8.292969 35.785156 8.609375 36.039062 8.933594 C 36.289062 9.257812 36.527344 9.59375 36.757812 9.933594 C 36.988281 10.273438 37.207031 10.621094 37.414062 10.976562 C 37.617188 11.332031 37.8125 11.695312 37.996094 12.0625 C 38.179688 12.429688 38.351562 12.800781 38.511719 13.179688 C 38.667969 13.558594 38.816406 13.945312 38.949219 14.332031 C 39.085938 14.71875 39.207031 15.113281 39.316406 15.507812 C 39.425781 15.90625 39.519531 16.304688 39.601562 16.707031 C 39.6875 17.109375 39.753906 17.511719 39.8125 17.921875 C 39.867188 18.328125 39.910156 18.734375 39.941406 19.144531 C 39.972656 19.554688 39.988281 19.964844 39.992188 20.375 C 39.996094 20.785156 39.988281 21.195312 39.964844 21.605469 C 39.941406 22.015625 39.902344 22.425781 39.855469 22.835938 C 39.804688 23.242188 39.742188 23.648438 39.664062 24.050781 C 39.589844 24.457031 39.5 24.855469 39.398438 25.253906 C 39.296875 25.652344 39.183594 26.046875 39.054688 26.4375 C 38.925781 26.828125 38.789062 27.214844 38.636719 27.59375 C 38.480469 27.976562 38.316406 28.351562 38.140625 28.722656 C 37.964844 29.09375 37.773438 29.457031 37.574219 29.816406 C 37.375 30.175781 37.160156 30.527344 36.9375 30.871094 C 36.714844 31.21875 36.480469 31.554688 36.234375 31.882812 C 35.988281 32.214844 35.734375 32.535156 35.46875 32.847656 C 35.203125 33.160156 34.925781 33.464844 34.640625 33.757812 C 34.355469 34.054688 34.058594 34.339844 33.753906 34.617188 C 33.449219 34.890625 33.136719 35.15625 32.816406 35.414062 C 32.496094 35.667969 32.164062 35.914062 31.828125 36.148438 C 31.488281 36.382812 31.144531 36.605469 30.792969 36.816406 C 30.441406 37.03125 30.082031 37.230469 29.71875 37.417969 C 29.351562 37.609375 28.984375 37.785156 28.605469 37.949219 C 28.230469 38.113281 27.847656 38.265625 27.460938 38.40625 C 27.074219 38.546875 26.683594 38.671875 26.289062 38.789062 C 25.894531 38.902344 25.5 39.003906 25.097656 39.09375 C 24.695312 39.179688 24.292969 39.257812 23.886719 39.320312 C 23.480469 39.382812 23.074219 39.429688 22.664062 39.46875 C 22.253906 39.503906 21.84375 39.527344 21.433594 39.535156 C 21.023438 39.546875 20.613281 39.542969 20.203125 39.523438 C 19.792969 39.507812 19.382812 39.476562 18.972656 39.433594 C 18.566406 39.390625 18.160156 39.332031 17.753906 39.261719 C 17.347656 39.191406 16.945312 39.109375 16.546875 39.015625 C 16.148438 38.917969 15.753906 38.808594 15.359375 38.6875 C 14.96875 38.566406 14.578125 38.429688 14.195312 38.285156 C 13.8125 38.136719 13.433594 37.976562 13.058594 37.808594 C 12.6875 37.636719 12.320312 37.453125 11.957031 37.257812 C 11.597656 37.0625 11.242188 36.855469 10.894531 36.636719 C 10.546875 36.417969 10.207031 36.1875 9.871094 35.949219 C 9.539062 35.707031 9.214844 35.457031 8.898438 35.195312 C 8.582031 34.933594 8.273438 34.664062 7.972656 34.378906 C 7.671875 34.097656 7.382812 33.808594 7.105469 33.507812 C 6.824219 33.207031 6.554688 32.898438 6.292969 32.582031 C 6.03125 32.261719 5.78125 31.9375 5.542969 31.601562 C 5.304688 31.269531 5.074219 30.929688 4.859375 30.578125 C 4.640625 30.230469 4.4375 29.875 4.242188 29.511719 C 4.046875 29.152344 3.867188 28.78125 3.695312 28.410156 C 3.527344 28.035156 3.367188 27.65625 3.222656 27.273438 C 3.078125 26.886719 2.945312 26.5 2.824219 26.105469 C 2.703125 25.714844 2.59375 25.316406 2.5 24.917969 C 2.40625 24.515625 2.324219 24.113281 2.257812 23.710938 C 2.1875 23.304688 2.132812 22.898438 2.089844 22.488281 C 2.046875 22.082031 2.019531 21.671875 2.003906 21.261719 C 1.988281 20.851562 1.984375 20.441406 1.996094 20.027344 C 2.007812 19.617188 2.03125 19.207031 2.070312 18.800781 C 2.105469 18.390625 2.15625 17.984375 2.222656 17.578125 C 2.285156 17.171875 2.363281 16.769531 2.453125 16.367188 C 2.542969 15.964844 2.648438 15.570312 2.761719 15.175781 C 2.878906 14.78125 3.007812 14.390625 3.148438 14.003906 C 3.289062 13.617188 3.445312 13.238281 3.609375 12.863281 Z M 5.011719 12.863281 " fill-opacity="1" fill-rule="evenodd"/></svg>